<svg width="1200" height="676" viewBox="0 0 1200 676" fill="none" xmlns="http://www.w3.org/2000/svg">
<rect x="131" y="238" width="231" height="80" rx="12" fill="#EBEBEB"/>
<path d="M171.599 274.277H168.275C168.147 273.567 167.909 272.942 167.561 272.402C167.213 271.862 166.787 271.404 166.282 271.028C165.778 270.651 165.214 270.367 164.589 270.175C163.971 269.984 163.314 269.888 162.618 269.888C161.361 269.888 160.235 270.204 159.241 270.836C158.253 271.468 157.472 272.395 156.897 273.616C156.329 274.838 156.045 276.33 156.045 278.091C156.045 279.866 156.329 281.365 156.897 282.587C157.472 283.808 158.257 284.732 159.251 285.357C160.246 285.982 161.364 286.294 162.607 286.294C163.296 286.294 163.949 286.202 164.567 286.017C165.192 285.825 165.757 285.545 166.261 285.175C166.765 284.806 167.192 284.355 167.54 283.822C167.895 283.283 168.14 282.665 168.275 281.969L171.599 281.979C171.421 283.052 171.077 284.039 170.565 284.941C170.061 285.836 169.411 286.61 168.616 287.263C167.827 287.91 166.925 288.411 165.91 288.766C164.894 289.121 163.786 289.298 162.586 289.298C160.697 289.298 159.013 288.851 157.536 287.956C156.059 287.054 154.894 285.765 154.042 284.089C153.197 282.413 152.774 280.413 152.774 278.091C152.774 275.761 153.2 273.762 154.052 272.093C154.905 270.417 156.069 269.131 157.547 268.237C159.024 267.335 160.704 266.884 162.586 266.884C163.743 266.884 164.823 267.05 165.824 267.384C166.833 267.711 167.738 268.194 168.541 268.833C169.344 269.465 170.008 270.239 170.533 271.156C171.059 272.065 171.414 273.105 171.599 274.277ZM182.175 289.33C180.641 289.33 179.302 288.979 178.158 288.276C177.015 287.572 176.127 286.589 175.495 285.325C174.863 284.06 174.547 282.583 174.547 280.893C174.547 279.195 174.863 277.711 175.495 276.44C176.127 275.168 177.015 274.181 178.158 273.478C179.302 272.775 180.641 272.423 182.175 272.423C183.709 272.423 185.048 272.775 186.191 273.478C187.335 274.181 188.222 275.168 188.854 276.44C189.487 277.711 189.803 279.195 189.803 280.893C189.803 282.583 189.487 284.06 188.854 285.325C188.222 286.589 187.335 287.572 186.191 288.276C185.048 288.979 183.709 289.33 182.175 289.33ZM182.185 286.656C183.18 286.656 184.004 286.393 184.657 285.868C185.31 285.342 185.793 284.643 186.106 283.769C186.425 282.896 186.585 281.933 186.585 280.882C186.585 279.838 186.425 278.879 186.106 278.006C185.793 277.125 185.31 276.418 184.657 275.886C184.004 275.353 183.18 275.087 182.185 275.087C181.184 275.087 180.353 275.353 179.692 275.886C179.039 276.418 178.553 277.125 178.233 278.006C177.92 278.879 177.764 279.838 177.764 280.882C177.764 281.933 177.92 282.896 178.233 283.769C178.553 284.643 179.039 285.342 179.692 285.868C180.353 286.393 181.184 286.656 182.185 286.656ZM196.544 279.284V289H193.358V272.636H196.416V275.3H196.618C196.994 274.433 197.584 273.737 198.387 273.212C199.196 272.686 200.215 272.423 201.444 272.423C202.559 272.423 203.536 272.658 204.374 273.126C205.212 273.588 205.862 274.277 206.323 275.193C206.785 276.109 207.016 277.242 207.016 278.592V289H203.83V278.975C203.83 277.789 203.521 276.862 202.904 276.195C202.286 275.52 201.437 275.183 200.357 275.183C199.619 275.183 198.962 275.342 198.387 275.662C197.818 275.982 197.367 276.45 197.034 277.068C196.707 277.679 196.544 278.418 196.544 279.284ZM224.7 272.636L218.767 289H215.357L209.413 272.636H212.833L216.977 285.229H217.147L221.281 272.636H224.7ZM234.19 289.33C232.578 289.33 231.189 288.986 230.025 288.297C228.867 287.601 227.972 286.624 227.34 285.367C226.715 284.103 226.402 282.622 226.402 280.925C226.402 279.249 226.715 277.771 227.34 276.493C227.972 275.214 228.853 274.217 229.982 273.499C231.118 272.782 232.446 272.423 233.966 272.423C234.89 272.423 235.784 272.576 236.651 272.881C237.517 273.187 238.295 273.666 238.984 274.32C239.673 274.973 240.216 275.822 240.614 276.866C241.012 277.903 241.211 279.163 241.211 280.648V281.777H228.203V279.391H238.089C238.089 278.553 237.919 277.81 237.578 277.164C237.237 276.511 236.757 275.996 236.14 275.619C235.529 275.243 234.811 275.055 233.988 275.055C233.093 275.055 232.311 275.275 231.644 275.715C230.983 276.148 230.472 276.717 230.11 277.42C229.755 278.116 229.577 278.872 229.577 279.689V281.553C229.577 282.647 229.769 283.577 230.152 284.344C230.543 285.112 231.086 285.697 231.782 286.102C232.478 286.5 233.292 286.699 234.222 286.699C234.826 286.699 235.376 286.614 235.873 286.443C236.37 286.266 236.8 286.003 237.162 285.655C237.525 285.307 237.801 284.877 237.993 284.366L241.008 284.909C240.767 285.797 240.333 286.575 239.708 287.242C239.091 287.903 238.313 288.418 237.375 288.787C236.445 289.149 235.383 289.33 234.19 289.33ZM244.745 289V272.636H247.824V275.236H247.994C248.292 274.355 248.818 273.663 249.571 273.158C250.331 272.647 251.19 272.391 252.149 272.391C252.348 272.391 252.582 272.398 252.852 272.413C253.129 272.427 253.346 272.445 253.502 272.466V275.513C253.374 275.477 253.147 275.438 252.82 275.396C252.493 275.346 252.167 275.321 251.84 275.321C251.087 275.321 250.416 275.481 249.827 275.8C249.244 276.113 248.782 276.55 248.442 277.111C248.101 277.665 247.93 278.297 247.93 279.007V289H244.745ZM268.521 276.631L265.634 277.143C265.513 276.773 265.321 276.422 265.058 276.088C264.803 275.754 264.455 275.481 264.014 275.268C263.574 275.055 263.023 274.948 262.363 274.948C261.461 274.948 260.708 275.151 260.104 275.555C259.501 275.953 259.199 276.468 259.199 277.1C259.199 277.647 259.401 278.087 259.806 278.421C260.211 278.755 260.864 279.028 261.766 279.241L264.366 279.838C265.871 280.186 266.994 280.722 267.732 281.447C268.471 282.171 268.84 283.112 268.84 284.27C268.84 285.25 268.556 286.124 267.988 286.891C267.427 287.651 266.642 288.247 265.634 288.68C264.632 289.114 263.471 289.33 262.15 289.33C260.317 289.33 258.822 288.94 257.665 288.158C256.507 287.37 255.797 286.251 255.534 284.803L258.613 284.334C258.805 285.136 259.199 285.744 259.795 286.156C260.392 286.56 261.17 286.763 262.129 286.763C263.173 286.763 264.007 286.546 264.632 286.113C265.257 285.673 265.57 285.136 265.57 284.504C265.57 283.993 265.378 283.563 264.994 283.215C264.618 282.867 264.039 282.604 263.258 282.427L260.488 281.82C258.961 281.472 257.832 280.918 257.1 280.158C256.376 279.398 256.013 278.435 256.013 277.271C256.013 276.305 256.283 275.46 256.823 274.735C257.363 274.011 258.109 273.446 259.06 273.041C260.012 272.629 261.102 272.423 262.331 272.423C264.099 272.423 265.491 272.807 266.507 273.574C267.523 274.334 268.194 275.353 268.521 276.631ZM277.105 289.362C276.068 289.362 275.13 289.17 274.292 288.787C273.454 288.396 272.79 287.832 272.3 287.093C271.817 286.354 271.575 285.449 271.575 284.376C271.575 283.453 271.753 282.693 272.108 282.097C272.463 281.5 272.943 281.028 273.546 280.68C274.15 280.332 274.825 280.069 275.57 279.891C276.316 279.714 277.076 279.579 277.85 279.487C278.83 279.373 279.626 279.281 280.237 279.21C280.847 279.131 281.291 279.007 281.568 278.837C281.845 278.666 281.984 278.389 281.984 278.006V277.931C281.984 277.001 281.721 276.28 281.195 275.768C280.677 275.257 279.903 275.001 278.873 275.001C277.801 275.001 276.955 275.239 276.338 275.715C275.727 276.184 275.304 276.706 275.07 277.281L272.076 276.599C272.431 275.605 272.95 274.803 273.632 274.192C274.32 273.574 275.112 273.126 276.007 272.849C276.902 272.565 277.843 272.423 278.83 272.423C279.484 272.423 280.176 272.501 280.908 272.658C281.646 272.807 282.335 273.084 282.975 273.489C283.621 273.893 284.15 274.472 284.562 275.225C284.974 275.971 285.18 276.94 285.18 278.134V289H282.069V286.763H281.941C281.735 287.175 281.426 287.58 281.014 287.977C280.602 288.375 280.073 288.705 279.427 288.968C278.781 289.231 278.007 289.362 277.105 289.362ZM277.797 286.805C278.678 286.805 279.431 286.631 280.056 286.283C280.688 285.935 281.167 285.481 281.494 284.92C281.828 284.352 281.994 283.744 281.994 283.098V280.989C281.881 281.102 281.661 281.209 281.334 281.308C281.014 281.401 280.649 281.482 280.237 281.553C279.825 281.617 279.423 281.678 279.033 281.734C278.642 281.784 278.316 281.827 278.053 281.862C277.435 281.94 276.87 282.072 276.359 282.256C275.855 282.441 275.45 282.707 275.144 283.055C274.846 283.396 274.697 283.851 274.697 284.419C274.697 285.207 274.988 285.804 275.57 286.209C276.153 286.607 276.895 286.805 277.797 286.805ZM297.061 272.636V275.193H288.123V272.636H297.061ZM290.52 268.716H293.705V284.195C293.705 284.813 293.798 285.278 293.982 285.591C294.167 285.896 294.405 286.106 294.696 286.219C294.994 286.326 295.317 286.379 295.665 286.379C295.921 286.379 296.145 286.362 296.337 286.326C296.528 286.29 296.678 286.262 296.784 286.241L297.359 288.872C297.175 288.943 296.912 289.014 296.571 289.085C296.23 289.163 295.804 289.206 295.293 289.213C294.455 289.227 293.673 289.078 292.949 288.766C292.224 288.453 291.638 287.97 291.191 287.317C290.744 286.663 290.52 285.843 290.52 284.856V268.716ZM300.585 289V272.636H303.77V289H300.585ZM302.193 270.112C301.639 270.112 301.164 269.927 300.766 269.558C300.375 269.181 300.18 268.734 300.18 268.215C300.18 267.69 300.375 267.242 300.766 266.873C301.164 266.496 301.639 266.308 302.193 266.308C302.747 266.308 303.22 266.496 303.61 266.873C304.008 267.242 304.207 267.69 304.207 268.215C304.207 268.734 304.008 269.181 303.61 269.558C303.22 269.927 302.747 270.112 302.193 270.112ZM314.948 289.33C313.414 289.33 312.075 288.979 310.932 288.276C309.788 287.572 308.901 286.589 308.268 285.325C307.636 284.06 307.32 282.583 307.32 280.893C307.32 279.195 307.636 277.711 308.268 276.44C308.901 275.168 309.788 274.181 310.932 273.478C312.075 272.775 313.414 272.423 314.948 272.423C316.482 272.423 317.821 272.775 318.964 273.478C320.108 274.181 320.996 275.168 321.628 276.44C322.26 277.711 322.576 279.195 322.576 280.893C322.576 282.583 322.26 284.06 321.628 285.325C320.996 286.589 320.108 287.572 318.964 288.276C317.821 288.979 316.482 289.33 314.948 289.33ZM314.959 286.656C315.953 286.656 316.777 286.393 317.43 285.868C318.084 285.342 318.567 284.643 318.879 283.769C319.199 282.896 319.359 281.933 319.359 280.882C319.359 279.838 319.199 278.879 318.879 278.006C318.567 277.125 318.084 276.418 317.43 275.886C316.777 275.353 315.953 275.087 314.959 275.087C313.957 275.087 313.126 275.353 312.466 275.886C311.813 276.418 311.326 277.125 311.006 278.006C310.694 278.879 310.538 279.838 310.538 280.882C310.538 281.933 310.694 282.896 311.006 283.769C311.326 284.643 311.813 285.342 312.466 285.868C313.126 286.393 313.957 286.656 314.959 286.656ZM329.317 279.284V289H326.132V272.636H329.189V275.3H329.392C329.768 274.433 330.357 273.737 331.16 273.212C331.97 272.686 332.989 272.423 334.218 272.423C335.333 272.423 336.309 272.658 337.147 273.126C337.985 273.588 338.635 274.277 339.097 275.193C339.558 276.109 339.789 277.242 339.789 278.592V289H336.604V278.975C336.604 277.789 336.295 276.862 335.677 276.195C335.059 275.52 334.21 275.183 333.131 275.183C332.392 275.183 331.735 275.342 331.16 275.662C330.592 275.982 330.141 276.45 329.807 277.068C329.48 277.679 329.317 278.418 329.317 279.284Z" fill="black"/>
<path d="M477.414 279.414C478.195 278.633 478.195 277.367 477.414 276.586L464.686 263.858C463.905 263.077 462.639 263.077 461.858 263.858C461.077 264.639 461.077 265.905 461.858 266.686L473.172 278L461.858 289.314C461.077 290.095 461.077 291.361 461.858 292.142C462.639 292.923 463.905 292.923 464.686 292.142L477.414 279.414ZM402 280H476V276H402V280Z" fill="#9900CC"/>
<rect x="516" y="238" width="186" height="80" rx="12" fill="#EBEBEB"/>
<path d="M537.328 270.016V267.182H554.214V270.016H547.406V289H544.125V270.016H537.328ZM555.99 289V272.636H559.069V275.236H559.239C559.538 274.355 560.063 273.663 560.816 273.158C561.576 272.647 562.435 272.391 563.394 272.391C563.593 272.391 563.827 272.398 564.097 272.413C564.374 272.427 564.591 272.445 564.747 272.466V275.513C564.619 275.477 564.392 275.438 564.065 275.396C563.739 275.346 563.412 275.321 563.085 275.321C562.332 275.321 561.661 275.481 561.072 275.8C560.489 276.113 560.028 276.55 559.687 277.111C559.346 277.665 559.175 278.297 559.175 279.007V289H555.99ZM572.119 289.362C571.082 289.362 570.145 289.17 569.307 288.787C568.469 288.396 567.805 287.832 567.315 287.093C566.832 286.354 566.59 285.449 566.59 284.376C566.59 283.453 566.768 282.693 567.123 282.097C567.478 281.5 567.957 281.028 568.561 280.68C569.165 280.332 569.839 280.069 570.585 279.891C571.331 279.714 572.091 279.579 572.865 279.487C573.845 279.373 574.641 279.281 575.251 279.21C575.862 279.131 576.306 279.007 576.583 278.837C576.86 278.666 576.998 278.389 576.998 278.006V277.931C576.998 277.001 576.736 276.28 576.21 275.768C575.692 275.257 574.918 275.001 573.888 275.001C572.815 275.001 571.97 275.239 571.352 275.715C570.741 276.184 570.319 276.706 570.084 277.281L567.091 276.599C567.446 275.605 567.964 274.803 568.646 274.192C569.335 273.574 570.127 273.126 571.022 272.849C571.917 272.565 572.858 272.423 573.845 272.423C574.498 272.423 575.191 272.501 575.922 272.658C576.661 272.807 577.35 273.084 577.989 273.489C578.636 273.893 579.165 274.472 579.577 275.225C579.989 275.971 580.195 276.94 580.195 278.134V289H577.084V286.763H576.956C576.75 287.175 576.441 287.58 576.029 287.977C575.617 288.375 575.088 288.705 574.442 288.968C573.795 289.231 573.021 289.362 572.119 289.362ZM572.812 286.805C573.692 286.805 574.445 286.631 575.07 286.283C575.702 285.935 576.182 285.481 576.508 284.92C576.842 284.352 577.009 283.744 577.009 283.098V280.989C576.896 281.102 576.675 281.209 576.349 281.308C576.029 281.401 575.663 281.482 575.251 281.553C574.839 281.617 574.438 281.678 574.047 281.734C573.657 281.784 573.33 281.827 573.067 281.862C572.449 281.94 571.885 282.072 571.373 282.256C570.869 282.441 570.464 282.707 570.159 283.055C569.861 283.396 569.712 283.851 569.712 284.419C569.712 285.207 570.003 285.804 570.585 286.209C571.168 286.607 571.91 286.805 572.812 286.805ZM587.623 279.284V289H584.437V272.636H587.495V275.3H587.697C588.074 274.433 588.663 273.737 589.466 273.212C590.275 272.686 591.294 272.423 592.523 272.423C593.638 272.423 594.615 272.658 595.453 273.126C596.291 273.588 596.941 274.277 597.402 275.193C597.864 276.109 598.095 277.242 598.095 278.592V289H594.91V278.975C594.91 277.789 594.601 276.862 593.983 276.195C593.365 275.52 592.516 275.183 591.437 275.183C590.698 275.183 590.041 275.342 589.466 275.662C588.897 275.982 588.446 276.45 588.113 277.068C587.786 277.679 587.623 278.418 587.623 279.284ZM614.629 276.631L611.742 277.143C611.621 276.773 611.429 276.422 611.167 276.088C610.911 275.754 610.563 275.481 610.123 275.268C609.682 275.055 609.132 274.948 608.471 274.948C607.569 274.948 606.816 275.151 606.213 275.555C605.609 275.953 605.307 276.468 605.307 277.1C605.307 277.647 605.51 278.087 605.915 278.421C606.319 278.755 606.973 279.028 607.875 279.241L610.474 279.838C611.98 280.186 613.102 280.722 613.841 281.447C614.579 282.171 614.949 283.112 614.949 284.27C614.949 285.25 614.665 286.124 614.096 286.891C613.535 287.651 612.75 288.247 611.742 288.68C610.741 289.114 609.579 289.33 608.258 289.33C606.426 289.33 604.931 288.94 603.773 288.158C602.616 287.37 601.905 286.251 601.642 284.803L604.721 284.334C604.913 285.136 605.307 285.744 605.904 286.156C606.5 286.56 607.278 286.763 608.237 286.763C609.281 286.763 610.116 286.546 610.741 286.113C611.366 285.673 611.678 285.136 611.678 284.504C611.678 283.993 611.486 283.563 611.103 283.215C610.726 282.867 610.147 282.604 609.366 282.427L606.596 281.82C605.069 281.472 603.94 280.918 603.209 280.158C602.484 279.398 602.122 278.435 602.122 277.271C602.122 276.305 602.392 275.46 602.932 274.735C603.471 274.011 604.217 273.446 605.169 273.041C606.12 272.629 607.211 272.423 608.439 272.423C610.208 272.423 611.6 272.807 612.616 273.574C613.631 274.334 614.302 275.353 614.629 276.631ZM625.344 289.33C623.76 289.33 622.396 288.972 621.253 288.254C620.116 287.53 619.243 286.532 618.632 285.261C618.021 283.989 617.716 282.533 617.716 280.893C617.716 279.231 618.028 277.764 618.653 276.493C619.278 275.214 620.159 274.217 621.295 273.499C622.432 272.782 623.771 272.423 625.312 272.423C626.555 272.423 627.663 272.654 628.636 273.116C629.609 273.57 630.393 274.21 630.99 275.033C631.594 275.857 631.952 276.82 632.066 277.92H628.966C628.795 277.153 628.405 276.493 627.794 275.939C627.19 275.385 626.381 275.108 625.365 275.108C624.477 275.108 623.699 275.342 623.032 275.811C622.371 276.273 621.856 276.933 621.487 277.793C621.118 278.645 620.933 279.653 620.933 280.818C620.933 282.011 621.114 283.041 621.476 283.908C621.839 284.774 622.35 285.445 623.011 285.921C623.678 286.397 624.463 286.635 625.365 286.635C625.969 286.635 626.516 286.525 627.006 286.305C627.503 286.077 627.918 285.754 628.252 285.335C628.593 284.916 628.831 284.412 628.966 283.822H632.066C631.952 284.881 631.608 285.825 631.033 286.656C630.457 287.487 629.687 288.141 628.721 288.616C627.762 289.092 626.636 289.33 625.344 289.33ZM635.472 289V272.636H638.551V275.236H638.722C639.02 274.355 639.546 273.663 640.298 273.158C641.058 272.647 641.918 272.391 642.877 272.391C643.075 272.391 643.31 272.398 643.58 272.413C643.857 272.427 644.073 272.445 644.229 272.466V275.513C644.102 275.477 643.874 275.438 643.548 275.396C643.221 275.346 642.894 275.321 642.568 275.321C641.815 275.321 641.144 275.481 640.554 275.8C639.972 276.113 639.51 276.55 639.169 277.111C638.828 277.665 638.658 278.297 638.658 279.007V289H635.472ZM646.986 289V272.636H650.171V289H646.986ZM648.595 270.112C648.041 270.112 647.565 269.927 647.167 269.558C646.777 269.181 646.581 268.734 646.581 268.215C646.581 267.69 646.777 267.242 647.167 266.873C647.565 266.496 648.041 266.308 648.595 266.308C649.149 266.308 649.621 266.496 650.012 266.873C650.409 267.242 650.608 267.69 650.608 268.215C650.608 268.734 650.409 269.181 650.012 269.558C649.621 269.927 649.149 270.112 648.595 270.112ZM654.457 295.136V272.636H657.568V275.289H657.834C658.019 274.948 658.285 274.554 658.633 274.107C658.981 273.659 659.464 273.268 660.082 272.935C660.7 272.594 661.516 272.423 662.532 272.423C663.853 272.423 665.032 272.757 666.069 273.425C667.106 274.092 667.919 275.055 668.509 276.312C669.105 277.569 669.403 279.082 669.403 280.85C669.403 282.619 669.109 284.135 668.519 285.399C667.93 286.656 667.12 287.626 666.09 288.308C665.06 288.982 663.885 289.32 662.564 289.32C661.57 289.32 660.756 289.153 660.124 288.819C659.499 288.485 659.009 288.094 658.654 287.647C658.299 287.2 658.026 286.802 657.834 286.454H657.642V295.136H654.457ZM657.578 280.818C657.578 281.969 657.745 282.977 658.079 283.844C658.413 284.71 658.896 285.388 659.528 285.879C660.16 286.362 660.934 286.603 661.85 286.603C662.802 286.603 663.597 286.351 664.237 285.847C664.876 285.335 665.359 284.643 665.685 283.769C666.019 282.896 666.186 281.912 666.186 280.818C666.186 279.739 666.023 278.769 665.696 277.91C665.377 277.05 664.894 276.372 664.247 275.875C663.608 275.378 662.809 275.129 661.85 275.129C660.927 275.129 660.146 275.367 659.506 275.843C658.874 276.319 658.395 276.983 658.068 277.835C657.742 278.687 657.578 279.682 657.578 280.818ZM680.611 272.636V275.193H671.673V272.636H680.611ZM674.07 268.716H677.255V284.195C677.255 284.813 677.347 285.278 677.532 285.591C677.717 285.896 677.955 286.106 678.246 286.219C678.544 286.326 678.867 286.379 679.215 286.379C679.471 286.379 679.695 286.362 679.886 286.326C680.078 286.29 680.227 286.262 680.334 286.241L680.909 288.872C680.725 288.943 680.462 289.014 680.121 289.085C679.78 289.163 679.354 289.206 678.842 289.213C678.004 289.227 677.223 289.078 676.499 288.766C675.774 288.453 675.188 287.97 674.741 287.317C674.293 286.663 674.07 285.843 674.07 284.856V268.716Z" fill="black"/>
<path d="M817.414 279.414C818.195 278.633 818.195 277.367 817.414 276.586L804.686 263.858C803.905 263.077 802.639 263.077 801.858 263.858C801.077 264.639 801.077 265.905 801.858 266.686L813.172 278L801.858 289.314C801.077 290.095 801.077 291.361 801.858 292.142C802.639 292.923 803.905 292.923 804.686 292.142L817.414 279.414ZM742 280H816V276H742V280Z" fill="#9900CC"/>
<rect x="856" y="238" width="99" height="80" rx="12" fill="#EBEBEB"/>
<path d="M896.24 267.182V289H893.214L882.124 272.999H881.921V289H878.629V267.182H881.676L892.777 283.205H892.98V267.182H896.24ZM901.042 289V267.182H904.333V286.166H914.22V289H901.042ZM917.975 289V267.182H925.752C927.45 267.182 928.856 267.491 929.971 268.109C931.086 268.727 931.92 269.572 932.474 270.644C933.028 271.71 933.305 272.91 933.305 274.245C933.305 275.587 933.025 276.795 932.464 277.867C931.91 278.933 931.072 279.778 929.95 280.403C928.835 281.021 927.432 281.33 925.741 281.33H920.393V278.538H925.443C926.516 278.538 927.386 278.354 928.053 277.984C928.721 277.608 929.211 277.097 929.523 276.45C929.836 275.804 929.992 275.069 929.992 274.245C929.992 273.421 929.836 272.69 929.523 272.05C929.211 271.411 928.717 270.911 928.043 270.548C927.375 270.186 926.494 270.005 925.401 270.005H921.267V289H917.975Z" fill="black"/>
<path d="M1070.41 279.414C1071.2 278.633 1071.2 277.367 1070.41 276.586L1057.69 263.858C1056.91 263.077 1055.64 263.077 1054.86 263.858C1054.08 264.639 1054.08 265.905 1054.86 266.686L1066.17 278L1054.86 289.314C1054.08 290.095 1054.08 291.361 1054.86 292.142C1055.64 292.923 1056.91 292.923 1057.69 292.142L1070.41 279.414ZM995 280H1069V276H995V280Z" fill="#9900CC"/>
<rect x="66" y="358" width="145" height="80" rx="12" fill="#EBEBEB"/>
<path d="M88.7046 409V387.182H96.4816C98.1791 387.182 99.5853 387.491 100.7 388.109C101.815 388.727 102.65 389.572 103.204 390.644C103.758 391.71 104.035 392.91 104.035 394.245C104.035 395.587 103.754 396.795 103.193 397.867C102.639 398.933 101.801 399.778 100.679 400.403C99.564 401.021 98.1613 401.33 96.471 401.33H91.123V398.538H96.1727C97.2451 398.538 98.1151 398.354 98.7828 397.984C99.4504 397.608 99.9404 397.097 100.253 396.45C100.565 395.804 100.722 395.069 100.722 394.245C100.722 393.421 100.565 392.69 100.253 392.05C99.9404 391.411 99.4468 390.911 98.7721 390.548C98.1045 390.186 97.2238 390.005 96.1301 390.005H91.9965V409H88.7046ZM107.638 409V392.636H110.717V395.236H110.888C111.186 394.355 111.712 393.663 112.464 393.158C113.224 392.647 114.084 392.391 115.043 392.391C115.241 392.391 115.476 392.398 115.746 392.413C116.023 392.427 116.239 392.445 116.396 392.466V395.513C116.268 395.477 116.04 395.438 115.714 395.396C115.387 395.346 115.06 395.321 114.734 395.321C113.981 395.321 113.31 395.481 112.72 395.8C112.138 396.113 111.676 396.55 111.335 397.111C110.994 397.665 110.824 398.297 110.824 399.007V409H107.638ZM125.459 409.33C123.925 409.33 122.586 408.979 121.443 408.276C120.299 407.572 119.411 406.589 118.779 405.325C118.147 404.06 117.831 402.583 117.831 400.893C117.831 399.195 118.147 397.711 118.779 396.44C119.411 395.168 120.299 394.181 121.443 393.478C122.586 392.775 123.925 392.423 125.459 392.423C126.993 392.423 128.332 392.775 129.475 393.478C130.619 394.181 131.506 395.168 132.139 396.44C132.771 397.711 133.087 399.195 133.087 400.893C133.087 402.583 132.771 404.06 132.139 405.325C131.506 406.589 130.619 407.572 129.475 408.276C128.332 408.979 126.993 409.33 125.459 409.33ZM125.47 406.656C126.464 406.656 127.288 406.393 127.941 405.868C128.595 405.342 129.078 404.643 129.39 403.769C129.71 402.896 129.869 401.933 129.869 400.882C129.869 399.838 129.71 398.879 129.39 398.006C129.078 397.125 128.595 396.418 127.941 395.886C127.288 395.353 126.464 395.087 125.47 395.087C124.468 395.087 123.637 395.353 122.977 395.886C122.323 396.418 121.837 397.125 121.517 398.006C121.205 398.879 121.048 399.838 121.048 400.882C121.048 401.933 121.205 402.896 121.517 403.769C121.837 404.643 122.323 405.342 122.977 405.868C123.637 406.393 124.468 406.656 125.47 406.656ZM136.642 409V392.636H139.7V395.3H139.902C140.243 394.398 140.801 393.695 141.575 393.19C142.349 392.679 143.276 392.423 144.355 392.423C145.449 392.423 146.365 392.679 147.104 393.19C147.85 393.702 148.4 394.405 148.755 395.3H148.926C149.316 394.426 149.938 393.73 150.79 393.212C151.642 392.686 152.658 392.423 153.837 392.423C155.321 392.423 156.532 392.888 157.47 393.819C158.414 394.749 158.887 396.152 158.887 398.027V409H155.701V398.325C155.701 397.217 155.399 396.415 154.796 395.918C154.192 395.42 153.471 395.172 152.633 395.172C151.596 395.172 150.79 395.491 150.215 396.131C149.639 396.763 149.352 397.576 149.352 398.57V409H146.177V398.123C146.177 397.235 145.9 396.521 145.346 395.982C144.792 395.442 144.071 395.172 143.184 395.172C142.58 395.172 142.022 395.332 141.511 395.651C141.007 395.964 140.598 396.401 140.286 396.962C139.98 397.523 139.828 398.173 139.828 398.911V409H136.642ZM163.156 415.136V392.636H166.267V395.289H166.533C166.718 394.948 166.984 394.554 167.332 394.107C167.68 393.659 168.163 393.268 168.781 392.935C169.399 392.594 170.216 392.423 171.231 392.423C172.552 392.423 173.731 392.757 174.768 393.425C175.805 394.092 176.618 395.055 177.208 396.312C177.804 397.569 178.103 399.082 178.103 400.85C178.103 402.619 177.808 404.135 177.218 405.399C176.629 406.656 175.819 407.626 174.79 408.308C173.76 408.982 172.584 409.32 171.263 409.32C170.269 409.32 169.456 409.153 168.824 408.819C168.199 408.485 167.709 408.094 167.353 407.647C166.998 407.2 166.725 406.802 166.533 406.454H166.341V415.136H163.156ZM166.277 400.818C166.277 401.969 166.444 402.977 166.778 403.844C167.112 404.71 167.595 405.388 168.227 405.879C168.859 406.362 169.633 406.603 170.549 406.603C171.501 406.603 172.297 406.351 172.936 405.847C173.575 405.335 174.058 404.643 174.385 403.769C174.718 402.896 174.885 401.912 174.885 400.818C174.885 399.739 174.722 398.769 174.395 397.91C174.076 397.05 173.593 396.372 172.946 395.875C172.307 395.378 171.508 395.129 170.549 395.129C169.626 395.129 168.845 395.367 168.206 395.843C167.574 396.319 167.094 396.983 166.767 397.835C166.441 398.687 166.277 399.682 166.277 400.818ZM189.31 392.636V395.193H180.372V392.636H189.31ZM182.769 388.716H185.954V404.195C185.954 404.813 186.047 405.278 186.231 405.591C186.416 405.896 186.654 406.106 186.945 406.219C187.243 406.326 187.566 406.379 187.915 406.379C188.17 406.379 188.394 406.362 188.586 406.326C188.777 406.29 188.927 406.262 189.033 406.241L189.608 408.872C189.424 408.943 189.161 409.014 188.82 409.085C188.479 409.163 188.053 409.206 187.542 409.213C186.704 409.227 185.922 409.078 185.198 408.766C184.473 408.453 183.888 407.97 183.44 407.317C182.993 406.663 182.769 405.843 182.769 404.856V388.716Z" fill="black"/>
<path d="M326.414 399.414C327.195 398.633 327.195 397.367 326.414 396.586L313.686 383.858C312.905 383.077 311.639 383.077 310.858 383.858C310.077 384.639 310.077 385.905 310.858 386.686L322.172 398L310.858 409.314C310.077 410.095 310.077 411.361 310.858 412.142C311.639 412.923 312.905 412.923 313.686 412.142L326.414 399.414ZM251 400H325V396H251V400Z" fill="#9900CC"/>
<rect x="365" y="358" width="251" height="80" rx="12" fill="#EBEBEB"/>
<path d="M386.543 390.016V387.182H403.428V390.016H396.621V409H393.34V390.016H386.543ZM411.584 409.33C409.971 409.33 408.583 408.986 407.418 408.297C406.26 407.601 405.366 406.624 404.733 405.367C404.108 404.103 403.796 402.622 403.796 400.925C403.796 399.249 404.108 397.771 404.733 396.493C405.366 395.214 406.246 394.217 407.375 393.499C408.512 392.782 409.84 392.423 411.36 392.423C412.283 392.423 413.178 392.576 414.044 392.881C414.911 393.187 415.689 393.666 416.378 394.32C417.066 394.973 417.61 395.822 418.008 396.866C418.405 397.903 418.604 399.163 418.604 400.648V401.777H405.596V399.391H415.483C415.483 398.553 415.312 397.81 414.971 397.164C414.63 396.511 414.151 395.996 413.533 395.619C412.922 395.243 412.205 395.055 411.381 395.055C410.486 395.055 409.705 395.275 409.037 395.715C408.377 396.148 407.866 396.717 407.503 397.42C407.148 398.116 406.971 398.872 406.971 399.689V401.553C406.971 402.647 407.162 403.577 407.546 404.344C407.937 405.112 408.48 405.697 409.176 406.102C409.872 406.5 410.685 406.699 411.616 406.699C412.219 406.699 412.77 406.614 413.267 406.443C413.764 406.266 414.194 406.003 414.556 405.655C414.918 405.307 415.195 404.877 415.387 404.366L418.402 404.909C418.16 405.797 417.727 406.575 417.102 407.242C416.484 407.903 415.706 408.418 414.769 408.787C413.839 409.149 412.777 409.33 411.584 409.33ZM424.272 392.636L427.883 399.007L431.527 392.636H435.01L429.907 400.818L435.053 409H431.569L427.883 402.885L424.208 409H420.714L425.806 400.818L420.777 392.636H424.272ZM445.919 392.636V395.193H436.981V392.636H445.919ZM439.378 388.716H442.564V404.195C442.564 404.813 442.656 405.278 442.841 405.591C443.025 405.896 443.263 406.106 443.554 406.219C443.853 406.326 444.176 406.379 444.524 406.379C444.78 406.379 445.003 406.362 445.195 406.326C445.387 406.29 445.536 406.262 445.642 406.241L446.218 408.872C446.033 408.943 445.77 409.014 445.429 409.085C445.089 409.163 444.662 409.206 444.151 409.213C443.313 409.227 442.532 409.078 441.807 408.766C441.083 408.453 440.497 407.97 440.049 407.317C439.602 406.663 439.378 405.843 439.378 404.856V388.716ZM458.528 398.4V401.159H448.854V398.4H458.528ZM460.166 390.016V387.182H477.051V390.016H470.244V409H466.963V390.016H460.166ZM485.047 409.33C483.513 409.33 482.174 408.979 481.03 408.276C479.887 407.572 478.999 406.589 478.367 405.325C477.735 404.06 477.419 402.583 477.419 400.893C477.419 399.195 477.735 397.711 478.367 396.44C478.999 395.168 479.887 394.181 481.03 393.478C482.174 392.775 483.513 392.423 485.047 392.423C486.581 392.423 487.92 392.775 489.063 393.478C490.207 394.181 491.094 395.168 491.726 396.44C492.359 397.711 492.675 399.195 492.675 400.893C492.675 402.583 492.359 404.06 491.726 405.325C491.094 406.589 490.207 407.572 489.063 408.276C487.92 408.979 486.581 409.33 485.047 409.33ZM485.057 406.656C486.052 406.656 486.876 406.393 487.529 405.868C488.182 405.342 488.665 404.643 488.978 403.769C489.297 402.896 489.457 401.933 489.457 400.882C489.457 399.838 489.297 398.879 488.978 398.006C488.665 397.125 488.182 396.418 487.529 395.886C486.876 395.353 486.052 395.087 485.057 395.087C484.056 395.087 483.225 395.353 482.565 395.886C481.911 396.418 481.425 397.125 481.105 398.006C480.793 398.879 480.636 399.838 480.636 400.882C480.636 401.933 480.793 402.896 481.105 403.769C481.425 404.643 481.911 405.342 482.565 405.868C483.225 406.393 484.056 406.656 485.057 406.656ZM505.872 398.4V401.159H496.198V398.4H505.872ZM513.665 387.182V409H510.373V387.182H513.665ZM518.203 409V392.636H521.26V395.3H521.463C521.804 394.398 522.361 393.695 523.135 393.19C523.91 392.679 524.836 392.423 525.916 392.423C527.01 392.423 527.926 392.679 528.665 393.19C529.41 393.702 529.961 394.405 530.316 395.3H530.486C530.877 394.426 531.498 393.73 532.351 393.212C533.203 392.686 534.218 392.423 535.397 392.423C536.882 392.423 538.093 392.888 539.03 393.819C539.975 394.749 540.447 396.152 540.447 398.027V409H537.262V398.325C537.262 397.217 536.96 396.415 536.356 395.918C535.753 395.42 535.032 395.172 534.194 395.172C533.157 395.172 532.351 395.491 531.775 396.131C531.2 396.763 530.912 397.576 530.912 398.57V409H527.738V398.123C527.738 397.235 527.461 396.521 526.907 395.982C526.353 395.442 525.632 395.172 524.744 395.172C524.14 395.172 523.583 395.332 523.071 395.651C522.567 395.964 522.159 396.401 521.846 396.962C521.541 397.523 521.388 398.173 521.388 398.911V409H518.203ZM549.479 409.362C548.442 409.362 547.504 409.17 546.666 408.787C545.828 408.396 545.164 407.832 544.674 407.093C544.191 406.354 543.949 405.449 543.949 404.376C543.949 403.453 544.127 402.693 544.482 402.097C544.837 401.5 545.317 401.028 545.92 400.68C546.524 400.332 547.199 400.069 547.945 399.891C548.69 399.714 549.45 399.579 550.224 399.487C551.204 399.373 552 399.281 552.611 399.21C553.222 399.131 553.665 399.007 553.942 398.837C554.219 398.666 554.358 398.389 554.358 398.006V397.931C554.358 397.001 554.095 396.28 553.57 395.768C553.051 395.257 552.277 395.001 551.247 395.001C550.175 395.001 549.329 395.239 548.712 395.715C548.101 396.184 547.678 396.706 547.444 397.281L544.45 396.599C544.805 395.605 545.324 394.803 546.006 394.192C546.695 393.574 547.486 393.126 548.381 392.849C549.276 392.565 550.217 392.423 551.204 392.423C551.858 392.423 552.55 392.501 553.282 392.658C554.021 392.807 554.709 393.084 555.349 393.489C555.995 393.893 556.524 394.472 556.936 395.225C557.348 395.971 557.554 396.94 557.554 398.134V409H554.443V406.763H554.315C554.109 407.175 553.8 407.58 553.388 407.977C552.976 408.375 552.447 408.705 551.801 408.968C551.155 409.231 550.381 409.362 549.479 409.362ZM550.171 406.805C551.052 406.805 551.805 406.631 552.43 406.283C553.062 405.935 553.541 405.481 553.868 404.92C554.202 404.352 554.369 403.744 554.369 403.098V400.989C554.255 401.102 554.035 401.209 553.708 401.308C553.388 401.401 553.023 401.482 552.611 401.553C552.199 401.617 551.797 401.678 551.407 401.734C551.016 401.784 550.69 401.827 550.427 401.862C549.809 401.94 549.244 402.072 548.733 402.256C548.229 402.441 547.824 402.707 547.518 403.055C547.22 403.396 547.071 403.851 547.071 404.419C547.071 405.207 547.362 405.804 547.945 406.209C548.527 406.607 549.269 406.805 550.171 406.805ZM568.657 415.477C567.358 415.477 566.239 415.307 565.302 414.966C564.371 414.625 563.611 414.174 563.022 413.613C562.432 413.052 561.992 412.438 561.701 411.77L564.439 410.641C564.63 410.953 564.886 411.283 565.206 411.631C565.532 411.987 565.973 412.288 566.527 412.537C567.088 412.786 567.809 412.91 568.689 412.91C569.897 412.91 570.895 412.615 571.683 412.026C572.471 411.443 572.866 410.513 572.866 409.234V406.017H572.663C572.471 406.365 572.194 406.752 571.832 407.178C571.477 407.604 570.987 407.974 570.362 408.286C569.737 408.599 568.924 408.755 567.922 408.755C566.63 408.755 565.465 408.453 564.428 407.849C563.398 407.239 562.581 406.34 561.978 405.154C561.381 403.961 561.083 402.494 561.083 400.754C561.083 399.014 561.378 397.523 561.967 396.28C562.564 395.037 563.38 394.085 564.417 393.425C565.454 392.757 566.63 392.423 567.944 392.423C568.959 392.423 569.78 392.594 570.405 392.935C571.03 393.268 571.516 393.659 571.864 394.107C572.219 394.554 572.493 394.948 572.684 395.289H572.919V392.636H576.04V409.362C576.04 410.768 575.714 411.923 575.06 412.825C574.407 413.727 573.522 414.394 572.407 414.827C571.299 415.261 570.049 415.477 568.657 415.477ZM568.625 406.113C569.542 406.113 570.316 405.9 570.948 405.474C571.587 405.04 572.07 404.423 572.397 403.62C572.731 402.81 572.897 401.841 572.897 400.712C572.897 399.611 572.734 398.641 572.407 397.803C572.081 396.965 571.601 396.312 570.969 395.843C570.337 395.367 569.556 395.129 568.625 395.129C567.667 395.129 566.868 395.378 566.228 395.875C565.589 396.365 565.106 397.033 564.78 397.878C564.46 398.723 564.3 399.668 564.3 400.712C564.3 401.784 564.464 402.725 564.79 403.535C565.117 404.344 565.6 404.977 566.239 405.431C566.885 405.886 567.681 406.113 568.625 406.113ZM587.365 409.33C585.753 409.33 584.364 408.986 583.199 408.297C582.042 407.601 581.147 406.624 580.515 405.367C579.89 404.103 579.577 402.622 579.577 400.925C579.577 399.249 579.89 397.771 580.515 396.493C581.147 395.214 582.027 394.217 583.157 393.499C584.293 392.782 585.621 392.423 587.141 392.423C588.064 392.423 588.959 392.576 589.826 392.881C590.692 393.187 591.47 393.666 592.159 394.32C592.848 394.973 593.391 395.822 593.789 396.866C594.187 397.903 594.385 399.163 594.385 400.648V401.777H581.378V399.391H591.264C591.264 398.553 591.093 397.81 590.753 397.164C590.412 396.511 589.932 395.996 589.314 395.619C588.704 395.243 587.986 395.055 587.162 395.055C586.267 395.055 585.486 395.275 584.819 395.715C584.158 396.148 583.647 396.717 583.285 397.42C582.929 398.116 582.752 398.872 582.752 399.689V401.553C582.752 402.647 582.944 403.577 583.327 404.344C583.718 405.112 584.261 405.697 584.957 406.102C585.653 406.5 586.466 406.699 587.397 406.699C588 406.699 588.551 406.614 589.048 406.443C589.545 406.266 589.975 406.003 590.337 405.655C590.699 405.307 590.976 404.877 591.168 404.366L594.183 404.909C593.941 405.797 593.508 406.575 592.883 407.242C592.265 407.903 591.488 408.418 590.55 408.787C589.62 409.149 588.558 409.33 587.365 409.33Z" fill="black"/>
<path d="M731.414 399.414C732.195 398.633 732.195 397.367 731.414 396.586L718.686 383.858C717.905 383.077 716.639 383.077 715.858 383.858C715.077 384.639 715.077 385.905 715.858 386.686L727.172 398L715.858 409.314C715.077 410.095 715.077 411.361 715.858 412.142C716.639 412.923 717.905 412.923 718.686 412.142L731.414 399.414ZM656 400H730V396H656V400Z" fill="#9900CC"/>
<rect x="770" y="358" width="364" height="80" rx="12" fill="#CAEBD7"/>
<path d="M806.738 387.182H810.041V401.532C810.041 403.059 809.682 404.412 808.965 405.591C808.247 406.763 807.239 407.686 805.939 408.361C804.639 409.028 803.116 409.362 801.369 409.362C799.629 409.362 798.109 409.028 796.809 408.361C795.509 407.686 794.501 406.763 793.784 405.591C793.066 404.412 792.708 403.059 792.708 401.532V387.182H795.999V401.266C795.999 402.253 796.216 403.13 796.649 403.897C797.09 404.664 797.711 405.268 798.514 405.708C799.316 406.141 800.268 406.358 801.369 406.358C802.477 406.358 803.432 406.141 804.235 405.708C805.044 405.268 805.662 404.664 806.088 403.897C806.521 403.13 806.738 402.253 806.738 401.266V387.182ZM817.756 399.284V409H814.571V392.636H817.629V395.3H817.831C818.207 394.433 818.797 393.737 819.599 393.212C820.409 392.686 821.428 392.423 822.657 392.423C823.772 392.423 824.749 392.658 825.587 393.126C826.425 393.588 827.075 394.277 827.536 395.193C827.998 396.109 828.229 397.242 828.229 398.592V409H825.043V398.975C825.043 397.789 824.734 396.862 824.116 396.195C823.499 395.52 822.65 395.183 821.57 395.183C820.832 395.183 820.175 395.342 819.599 395.662C819.031 395.982 818.58 396.45 818.246 397.068C817.92 397.679 817.756 398.418 817.756 399.284ZM832.501 409V392.636H835.686V409H832.501ZM834.109 390.112C833.555 390.112 833.08 389.927 832.682 389.558C832.291 389.181 832.096 388.734 832.096 388.215C832.096 387.69 832.291 387.242 832.682 386.873C833.08 386.496 833.555 386.308 834.109 386.308C834.663 386.308 835.136 386.496 835.526 386.873C835.924 387.242 836.123 387.69 836.123 388.215C836.123 388.734 835.924 389.181 835.526 389.558C835.136 389.927 834.663 390.112 834.109 390.112ZM851.019 415.136V406.454H850.827C850.635 406.802 850.358 407.2 849.996 407.647C849.641 408.094 849.151 408.485 848.526 408.819C847.901 409.153 847.091 409.32 846.097 409.32C844.776 409.32 843.597 408.982 842.56 408.308C841.53 407.626 840.721 406.656 840.131 405.399C839.549 404.135 839.258 402.619 839.258 400.85C839.258 399.082 839.552 397.569 840.142 396.312C840.738 395.055 841.555 394.092 842.592 393.425C843.629 392.757 844.805 392.423 846.118 392.423C847.134 392.423 847.951 392.594 848.569 392.935C849.194 393.268 849.677 393.659 850.018 394.107C850.366 394.554 850.635 394.948 850.827 395.289H851.094V392.636H854.204V415.136H851.019ZM846.8 406.603C847.716 406.603 848.491 406.362 849.123 405.879C849.762 405.388 850.245 404.71 850.572 403.844C850.905 402.977 851.072 401.969 851.072 400.818C851.072 399.682 850.909 398.687 850.582 397.835C850.256 396.983 849.776 396.319 849.144 395.843C848.512 395.367 847.731 395.129 846.8 395.129C845.841 395.129 845.042 395.378 844.403 395.875C843.764 396.372 843.281 397.05 842.954 397.91C842.635 398.769 842.475 399.739 842.475 400.818C842.475 401.912 842.638 402.896 842.965 403.769C843.292 404.643 843.775 405.335 844.414 405.847C845.06 406.351 845.856 406.603 846.8 406.603ZM868.853 402.214V392.636H872.049V409H868.917V406.166H868.746C868.37 407.04 867.766 407.768 866.935 408.35C866.111 408.925 865.085 409.213 863.856 409.213C862.805 409.213 861.875 408.982 861.065 408.521C860.263 408.052 859.631 407.359 859.169 406.443C858.714 405.527 858.487 404.394 858.487 403.045V392.636H861.672V402.661C861.672 403.776 861.981 404.664 862.599 405.325C863.217 405.985 864.02 406.315 865.007 406.315C865.604 406.315 866.197 406.166 866.786 405.868C867.383 405.57 867.876 405.119 868.267 404.515C868.665 403.911 868.86 403.144 868.853 402.214ZM883.381 409.33C881.769 409.33 880.381 408.986 879.216 408.297C878.058 407.601 877.163 406.624 876.531 405.367C875.906 404.103 875.594 402.622 875.594 400.925C875.594 399.249 875.906 397.771 876.531 396.493C877.163 395.214 878.044 394.217 879.173 393.499C880.31 392.782 881.638 392.423 883.158 392.423C884.081 392.423 884.976 392.576 885.842 392.881C886.709 393.187 887.487 393.666 888.175 394.32C888.864 394.973 889.408 395.822 889.805 396.866C890.203 397.903 890.402 399.163 890.402 400.648V401.777H877.394V399.391H887.281C887.281 398.553 887.11 397.81 886.769 397.164C886.428 396.511 885.949 395.996 885.331 395.619C884.72 395.243 884.003 395.055 883.179 395.055C882.284 395.055 881.503 395.275 880.835 395.715C880.175 396.148 879.663 396.717 879.301 397.42C878.946 398.116 878.768 398.872 878.768 399.689V401.553C878.768 402.647 878.96 403.577 879.344 404.344C879.734 405.112 880.278 405.697 880.974 406.102C881.67 406.5 882.483 406.699 883.413 406.699C884.017 406.699 884.567 406.614 885.065 406.443C885.562 406.266 885.991 406.003 886.354 405.655C886.716 405.307 886.993 404.877 887.185 404.366L890.2 404.909C889.958 405.797 889.525 406.575 888.9 407.242C888.282 407.903 887.504 408.418 886.567 408.787C885.636 409.149 884.575 409.33 883.381 409.33ZM909.195 409H902.131V387.182H909.418C911.556 387.182 913.392 387.619 914.926 388.492C916.46 389.359 917.636 390.605 918.452 392.232C919.276 393.851 919.688 395.793 919.688 398.059C919.688 400.332 919.273 402.285 918.442 403.918C917.618 405.552 916.425 406.809 914.862 407.69C913.3 408.563 911.411 409 909.195 409ZM905.423 406.124H909.013C910.675 406.124 912.057 405.811 913.158 405.186C914.259 404.554 915.082 403.641 915.629 402.448C916.176 401.248 916.45 399.785 916.45 398.059C916.45 396.347 916.176 394.895 915.629 393.702C915.089 392.509 914.283 391.603 913.211 390.985C912.138 390.367 910.807 390.058 909.216 390.058H905.423V406.124ZM923.526 409V392.636H926.711V409H923.526ZM925.135 390.112C924.581 390.112 924.105 389.927 923.707 389.558C923.317 389.181 923.121 388.734 923.121 388.215C923.121 387.69 923.317 387.242 923.707 386.873C924.105 386.496 924.581 386.308 925.135 386.308C925.689 386.308 926.161 386.496 926.552 386.873C926.949 387.242 927.148 387.69 927.148 388.215C927.148 388.734 926.949 389.181 926.552 389.558C926.161 389.927 925.689 390.112 925.135 390.112ZM937.858 415.477C936.558 415.477 935.439 415.307 934.502 414.966C933.571 414.625 932.811 414.174 932.222 413.613C931.632 413.052 931.192 412.438 930.901 411.77L933.639 410.641C933.831 410.953 934.086 411.283 934.406 411.631C934.733 411.987 935.173 412.288 935.727 412.537C936.288 412.786 937.009 412.91 937.89 412.91C939.097 412.91 940.095 412.615 940.883 412.026C941.672 411.443 942.066 410.513 942.066 409.234V406.017H941.863C941.672 406.365 941.395 406.752 941.032 407.178C940.677 407.604 940.187 407.974 939.562 408.286C938.937 408.599 938.124 408.755 937.123 408.755C935.83 408.755 934.665 408.453 933.628 407.849C932.598 407.239 931.782 406.34 931.178 405.154C930.581 403.961 930.283 402.494 930.283 400.754C930.283 399.014 930.578 397.523 931.167 396.28C931.764 395.037 932.581 394.085 933.618 393.425C934.654 392.757 935.83 392.423 937.144 392.423C938.159 392.423 938.98 392.594 939.605 392.935C940.23 393.268 940.716 393.659 941.064 394.107C941.419 394.554 941.693 394.948 941.885 395.289H942.119V392.636H945.24V409.362C945.24 410.768 944.914 411.923 944.26 412.825C943.607 413.727 942.723 414.394 941.608 414.827C940.5 415.261 939.25 415.477 937.858 415.477ZM937.826 406.113C938.742 406.113 939.516 405.9 940.148 405.474C940.787 405.04 941.27 404.423 941.597 403.62C941.931 402.81 942.098 401.841 942.098 400.712C942.098 399.611 941.934 398.641 941.608 397.803C941.281 396.965 940.801 396.312 940.169 395.843C939.537 395.367 938.756 395.129 937.826 395.129C936.867 395.129 936.068 395.378 935.429 395.875C934.789 396.365 934.306 397.033 933.98 397.878C933.66 398.723 933.5 399.668 933.5 400.712C933.5 401.784 933.664 402.725 933.99 403.535C934.317 404.344 934.8 404.977 935.439 405.431C936.086 405.886 936.881 406.113 937.826 406.113ZM949.512 409V392.636H952.698V409H949.512ZM951.121 390.112C950.567 390.112 950.091 389.927 949.694 389.558C949.303 389.181 949.108 388.734 949.108 388.215C949.108 387.69 949.303 387.242 949.694 386.873C950.091 386.496 950.567 386.308 951.121 386.308C951.675 386.308 952.147 386.496 952.538 386.873C952.936 387.242 953.135 387.69 953.135 388.215C953.135 388.734 952.936 389.181 952.538 389.558C952.147 389.927 951.675 390.112 951.121 390.112ZM964.622 392.636V395.193H955.683V392.636H964.622ZM958.08 388.716H961.266V404.195C961.266 404.813 961.358 405.278 961.543 405.591C961.727 405.896 961.965 406.106 962.257 406.219C962.555 406.326 962.878 406.379 963.226 406.379C963.482 406.379 963.705 406.362 963.897 406.326C964.089 406.29 964.238 406.262 964.345 406.241L964.92 408.872C964.735 408.943 964.472 409.014 964.132 409.085C963.791 409.163 963.365 409.206 962.853 409.213C962.015 409.227 961.234 409.078 960.509 408.766C959.785 408.453 959.199 407.97 958.752 407.317C958.304 406.663 958.08 405.843 958.08 404.856V388.716ZM972.907 409.362C971.87 409.362 970.933 409.17 970.095 408.787C969.257 408.396 968.593 407.832 968.103 407.093C967.62 406.354 967.378 405.449 967.378 404.376C967.378 403.453 967.556 402.693 967.911 402.097C968.266 401.5 968.745 401.028 969.349 400.68C969.953 400.332 970.627 400.069 971.373 399.891C972.119 399.714 972.879 399.579 973.653 399.487C974.633 399.373 975.429 399.281 976.039 399.21C976.65 399.131 977.094 399.007 977.371 398.837C977.648 398.666 977.787 398.389 977.787 398.006V397.931C977.787 397.001 977.524 396.28 976.998 395.768C976.48 395.257 975.706 395.001 974.676 395.001C973.603 395.001 972.758 395.239 972.14 395.715C971.529 396.184 971.107 396.706 970.873 397.281L967.879 396.599C968.234 395.605 968.752 394.803 969.434 394.192C970.123 393.574 970.915 393.126 971.81 392.849C972.705 392.565 973.646 392.423 974.633 392.423C975.287 392.423 975.979 392.501 976.711 392.658C977.449 392.807 978.138 393.084 978.777 393.489C979.424 393.893 979.953 394.472 980.365 395.225C980.777 395.971 980.983 396.94 980.983 398.134V409H977.872V406.763H977.744C977.538 407.175 977.229 407.58 976.817 407.977C976.405 408.375 975.876 408.705 975.23 408.968C974.583 409.231 973.809 409.362 972.907 409.362ZM973.6 406.805C974.48 406.805 975.233 406.631 975.858 406.283C976.49 405.935 976.97 405.481 977.297 404.92C977.63 404.352 977.797 403.744 977.797 403.098V400.989C977.684 401.102 977.463 401.209 977.137 401.308C976.817 401.401 976.451 401.482 976.039 401.553C975.627 401.617 975.226 401.678 974.836 401.734C974.445 401.784 974.118 401.827 973.855 401.862C973.238 401.94 972.673 402.072 972.162 402.256C971.657 402.441 971.252 402.707 970.947 403.055C970.649 403.396 970.5 403.851 970.5 404.419C970.5 405.207 970.791 405.804 971.373 406.209C971.956 406.607 972.698 406.805 973.6 406.805ZM988.411 387.182V409H985.225V387.182H988.411ZM1002.73 409H999.24L1007.09 387.182H1010.89L1018.75 409H1015.25L1009.08 391.145H1008.91L1002.73 409ZM1003.32 400.456H1014.66V403.226H1003.32V400.456ZM1021.64 409V392.636H1024.72V395.236H1024.89C1025.19 394.355 1025.71 393.663 1026.47 393.158C1027.23 392.647 1028.09 392.391 1029.05 392.391C1029.24 392.391 1029.48 392.398 1029.75 392.413C1030.03 392.427 1030.24 392.445 1030.4 392.466V395.513C1030.27 395.477 1030.04 395.438 1029.72 395.396C1029.39 395.346 1029.06 395.321 1028.74 395.321C1027.98 395.321 1027.31 395.481 1026.72 395.8C1026.14 396.113 1025.68 396.55 1025.34 397.111C1025 397.665 1024.83 398.297 1024.83 399.007V409H1021.64ZM1041.76 392.636V395.193H1032.82V392.636H1041.76ZM1035.22 388.716H1038.4V404.195C1038.4 404.813 1038.5 405.278 1038.68 405.591C1038.87 405.896 1039.1 406.106 1039.4 406.219C1039.69 406.326 1040.02 406.379 1040.36 406.379C1040.62 406.379 1040.84 406.362 1041.04 406.326C1041.23 406.29 1041.38 406.262 1041.48 406.241L1042.06 408.872C1041.87 408.943 1041.61 409.014 1041.27 409.085C1040.93 409.163 1040.5 409.206 1039.99 409.213C1039.15 409.227 1038.37 409.078 1037.65 408.766C1036.92 408.453 1036.34 407.97 1035.89 407.317C1035.44 406.663 1035.22 405.843 1035.22 404.856V388.716ZM1048.83 409L1044.02 392.636H1047.31L1050.51 404.653H1050.67L1053.89 392.636H1057.18L1060.38 404.6H1060.54L1063.72 392.636H1067.02L1062.21 409H1058.96L1055.64 397.185H1055.39L1052.07 409H1048.83ZM1076.43 409.33C1074.9 409.33 1073.56 408.979 1072.42 408.276C1071.27 407.572 1070.39 406.589 1069.75 405.325C1069.12 404.06 1068.81 402.583 1068.81 400.893C1068.81 399.195 1069.12 397.711 1069.75 396.44C1070.39 395.168 1071.27 394.181 1072.42 393.478C1073.56 392.775 1074.9 392.423 1076.43 392.423C1077.97 392.423 1079.31 392.775 1080.45 393.478C1081.59 394.181 1082.48 395.168 1083.11 396.44C1083.75 397.711 1084.06 399.195 1084.06 400.893C1084.06 402.583 1083.75 404.06 1083.11 405.325C1082.48 406.589 1081.59 407.572 1080.45 408.276C1079.31 408.979 1077.97 409.33 1076.43 409.33ZM1076.45 406.656C1077.44 406.656 1078.26 406.393 1078.92 405.868C1079.57 405.342 1080.05 404.643 1080.37 403.769C1080.69 402.896 1080.84 401.933 1080.84 400.882C1080.84 399.838 1080.69 398.879 1080.37 398.006C1080.05 397.125 1079.57 396.418 1078.92 395.886C1078.26 395.353 1077.44 395.087 1076.45 395.087C1075.44 395.087 1074.61 395.353 1073.95 395.886C1073.3 396.418 1072.81 397.125 1072.49 398.006C1072.18 398.879 1072.02 399.838 1072.02 400.882C1072.02 401.933 1072.18 402.896 1072.49 403.769C1072.81 404.643 1073.3 405.342 1073.95 405.868C1074.61 406.393 1075.44 406.656 1076.45 406.656ZM1087.62 409V392.636H1090.7V395.236H1090.87C1091.17 394.355 1091.69 393.663 1092.44 393.158C1093.2 392.647 1094.06 392.391 1095.02 392.391C1095.22 392.391 1095.46 392.398 1095.73 392.413C1096 392.427 1096.22 392.445 1096.38 392.466V395.513C1096.25 395.477 1096.02 395.438 1095.69 395.396C1095.37 395.346 1095.04 395.321 1094.71 395.321C1093.96 395.321 1093.29 395.481 1092.7 395.8C1092.12 396.113 1091.66 396.55 1091.31 397.111C1090.97 397.665 1090.8 398.297 1090.8 399.007V409H1087.62ZM1102.06 403.45L1102.04 399.561H1102.59L1109.11 392.636H1112.93L1105.49 400.52H1104.99L1102.06 403.45ZM1099.13 409V387.182H1102.32V409H1099.13ZM1109.47 409L1103.61 401.223L1105.8 398.996L1113.38 409H1109.47Z" fill="black"/>
</svg>
