<svg width="960" height="1080" viewBox="0 0 960 1080" fill="none" xmlns="http://www.w3.org/2000/svg">
<g id="Logo-SolidarityCard-FF4D00-960x1080px">
<rect width="960" height="1080" fill="#FF4D00"/>
<g id="Vector">
<path d="M710.895 636.777C669.922 606.842 651.583 598.211 637.213 605.071C622.412 612.138 621.819 632.034 621.345 648.016L618.814 732.069L616.285 789.914C616.101 794.11 614.277 798.002 611.148 800.874C608.024 803.741 604.001 805.223 599.817 805.038C591.095 804.657 584.309 797.251 584.69 788.532L585.568 768.437C585.575 768.308 585.589 768.181 585.595 768.052C585.598 767.988 585.592 767.925 585.594 767.862L587.223 730.597C587.53 723.552 582.07 717.593 575.026 717.285C567.999 716.948 562.022 722.438 561.714 729.481L560.069 767.12C559.587 775.75 552.28 782.432 543.58 782.06C534.858 781.679 528.072 774.273 528.453 765.553L529.331 745.458C529.337 745.329 529.352 745.2 529.358 745.071C529.36 745.007 529.355 744.946 529.357 744.883L530.986 707.618C531.293 700.574 525.833 694.615 518.789 694.307C511.775 693.97 505.784 699.459 505.477 706.503L503.832 744.148C503.602 748.258 501.793 752.064 498.711 754.885C495.576 757.752 491.548 759.219 487.344 759.046C483.148 758.862 479.255 757.038 476.383 753.908C473.514 750.783 472.036 746.759 472.218 742.575L473.1 722.367C473.106 722.264 473.117 722.162 473.122 722.057C473.125 722.006 473.12 721.956 473.121 721.904L474.75 684.602C475.057 677.557 469.597 671.598 462.553 671.29C455.459 670.966 449.548 676.443 449.241 683.487L447.598 721.091C447.137 729.739 439.748 736.435 431.108 736.066C426.925 735.882 423.044 734.057 420.179 730.926C417.311 727.79 415.834 723.755 416.018 719.541L416.886 699.015L418.552 661.615C419.109 648.691 417.775 635.412 414.601 622.005C421.487 618.205 427.161 612.499 430.987 605.379C436.226 595.629 437.367 584.452 434.19 573.882C429.244 557.554 415.042 546.494 399.058 544.717C400.305 538.254 399.989 531.555 398.047 525.093C394.878 514.545 387.761 505.85 378.01 500.608C373.239 498.043 368.125 496.468 362.91 495.892C364.119 489.564 363.875 482.864 361.897 476.276C358.728 465.728 351.611 457.033 341.86 451.791C337.093 449.229 331.984 447.655 326.774 447.078C327.99 440.733 327.744 434.018 325.746 427.423C322.576 416.872 315.455 408.181 305.697 402.949C295.951 397.725 284.779 396.594 274.233 399.764L244.215 408.799L184 348.556L288.553 244.002L329.173 284.6C318.889 290.327 310.726 299.897 307.077 312.045C303.511 323.992 304.822 336.644 310.77 347.667C316.722 358.7 326.581 366.739 338.514 370.299L412.017 392.341C429.612 397.605 429.612 397.605 440.798 408.896C442.173 410.284 443.687 411.812 445.369 413.492L476.189 444.31C489.072 457.232 505.231 471.045 534.029 471.366C587.401 472.048 620.831 504.144 653.877 540.732C681.154 570.932 701.484 595.984 710.895 636.777Z" fill="#FFE600"/>
<path d="M331.539 319.366C333.167 313.948 336.834 309.472 341.864 306.763C346.891 304.055 352.642 303.459 358.062 305.088L454.71 334.035C468.003 338.026 470.937 342.192 478.775 353.324L478.829 353.401C480.325 355.523 482.016 357.923 483.906 360.483L547.665 446.709C543.172 446.198 538.727 445.888 534.358 445.832H534.35C534.344 445.832 534.339 445.83 534.334 445.83C516.857 445.64 506.77 438.811 494.259 426.263L463.418 395.422C461.77 393.778 460.297 392.291 458.955 390.937L458.952 390.933L458.95 390.931L458.94 390.921C444.954 376.803 441.846 374.608 419.346 367.876L345.834 345.833C340.426 344.219 335.955 340.564 333.245 335.539C330.532 330.514 329.93 324.761 331.539 319.366Z" fill="#FFE600"/>
<path d="M271.319 520.055C267.311 521.268 263.047 520.833 259.307 518.828C255.567 516.821 252.844 513.506 251.628 509.467C250.416 505.458 250.851 501.193 252.855 497.455C254.862 493.714 258.178 490.991 262.191 489.785C262.291 489.754 262.384 489.713 262.484 489.68L298.094 478.962C298.102 478.96 298.109 478.958 298.116 478.955L317.739 473.028C326.088 470.515 334.938 475.267 337.448 483.617C339.942 491.918 335.293 500.685 327.075 503.264C327.075 503.264 290.985 514.149 290.978 514.152L271.319 520.055Z" fill="#FFE600"/>
<path d="M235.194 471.23C231.169 472.441 226.891 472.001 223.147 469.993C219.409 467.99 216.688 464.681 215.477 460.649C214.263 456.64 214.701 452.371 216.707 448.627C218.718 444.879 222.042 442.143 226.045 440.931L281.587 424.214C283.077 423.766 284.601 423.545 286.122 423.545C288.706 423.545 291.277 424.188 293.636 425.451C297.373 427.454 300.093 430.763 301.305 434.795C303.831 443.138 299.081 451.988 290.715 454.522L235.194 471.23Z" fill="#FFE600"/>
<path d="M307.434 568.872C299.109 571.392 290.277 566.643 287.752 558.311C285.241 549.953 289.991 541.111 298.356 538.598L353.891 521.848C355.373 521.402 356.891 521.181 358.404 521.181C360.99 521.181 363.564 521.826 365.927 523.096C369.669 525.108 372.393 528.425 373.599 532.439C374.807 536.455 374.364 540.729 372.351 544.472C370.34 548.215 367.021 550.94 363.008 552.145L362.992 552.15C362.992 552.15 362.989 552.151 362.987 552.151L307.434 568.872Z" fill="#FFE600"/>
<path d="M408.501 593.289C406.491 597.031 403.171 599.757 399.147 600.966L343.611 617.716C339.595 618.923 335.322 618.481 331.576 616.468C327.835 614.456 325.11 611.139 323.904 607.125C322.694 603.102 323.133 598.822 325.141 595.078C327.143 591.341 330.452 588.621 334.458 587.418C334.555 587.389 334.647 587.348 334.743 587.316L390.007 570.664C398.361 568.15 407.223 572.914 409.75 581.254C410.958 585.272 410.513 589.546 408.501 593.289Z" fill="#FFE600"/>
<path d="M671.417 835.998L639.189 803.771C640.706 799.737 641.601 795.451 641.795 791.029L644.328 733.092C644.33 733.035 644.333 732.976 644.334 732.919L646.867 648.778C647.221 636.908 648.054 631.27 648.862 628.66C651.312 629.252 656.799 631.273 667.708 638.058C678.945 645.047 694.281 655.976 717.095 673.26C719.075 674.76 720.954 676.396 722.711 678.151L776 731.415L671.417 835.998Z" fill="#FFE600"/>
</g>
</g>
</svg>
