<svg width="530" height="340" viewBox="0 0 530 340" fill="none" xmlns="http://www.w3.org/2000/svg">
<rect width="530" height="340" fill="#FF4D00"/>
<path d="M346.905 204.33C332.371 193.711 325.866 190.649 320.768 193.083C315.518 195.589 315.308 202.647 315.139 208.317L314.242 238.132L313.344 258.652C313.279 260.141 312.632 261.521 311.522 262.54C310.414 263.557 308.987 264.083 307.503 264.017C304.409 263.882 302.002 261.255 302.137 258.162L302.448 251.034C302.45 250.988 302.455 250.943 302.458 250.897C302.459 250.874 302.457 250.852 302.457 250.829L303.035 237.61C303.144 235.111 301.207 232.997 298.708 232.888C296.216 232.769 294.096 234.716 293.986 237.214L293.403 250.566C293.232 253.628 290.64 255.998 287.554 255.866C284.46 255.731 282.053 253.104 282.188 250.011L282.499 242.882C282.501 242.836 282.506 242.791 282.509 242.745C282.51 242.722 282.508 242.7 282.508 242.678L283.086 229.459C283.195 226.96 281.258 224.846 278.759 224.737C276.271 224.618 274.146 226.565 274.038 229.063L273.454 242.417C273.372 243.875 272.731 245.226 271.637 246.226C270.525 247.243 269.096 247.763 267.605 247.702C266.117 247.637 264.736 246.99 263.717 245.88C262.699 244.771 262.175 243.344 262.24 241.859L262.553 234.691C262.554 234.654 262.558 234.618 262.56 234.581C262.561 234.563 262.559 234.545 262.56 234.527L263.138 221.295C263.247 218.796 261.31 216.682 258.811 216.573C256.294 216.458 254.198 218.4 254.089 220.899L253.506 234.238C253.343 237.306 250.722 239.681 247.657 239.55C246.173 239.485 244.796 238.838 243.78 237.727C242.763 236.615 242.239 235.183 242.304 233.689L242.612 226.407L243.203 213.14C243.4 208.556 242.927 203.845 241.801 199.09C244.244 197.742 246.256 195.718 247.614 193.192C249.472 189.733 249.877 185.769 248.75 182.019C246.995 176.227 241.957 172.304 236.288 171.673C236.73 169.381 236.618 167.004 235.929 164.712C234.805 160.97 232.28 157.886 228.821 156.027C227.129 155.117 225.315 154.558 223.465 154.354C223.894 152.109 223.807 149.732 223.105 147.395C221.981 143.654 219.457 140.569 215.998 138.71C214.307 137.801 212.494 137.242 210.646 137.038C211.078 134.787 210.99 132.405 210.282 130.065C209.157 126.323 206.631 123.24 203.169 121.384C199.712 119.531 195.749 119.13 192.008 120.254L181.36 123.459L160 102.089L197.088 65.0007L211.497 79.4021C207.849 81.4337 204.954 84.8283 203.659 89.1377C202.394 93.3756 202.859 97.8635 204.969 101.774C207.08 105.688 210.578 108.539 214.811 109.802L240.885 117.621C247.126 119.488 247.126 119.488 251.094 123.494C251.582 123.986 252.119 124.528 252.715 125.124L263.648 136.056C268.218 140.64 273.95 145.54 284.166 145.653C303.098 145.895 314.957 157.281 326.679 170.26C336.355 180.973 343.567 189.859 346.905 204.33Z" fill="#FFE600"/>
<path d="M212.337 91.7344C212.914 89.8125 214.215 88.2248 215.999 87.2638C217.782 86.3033 219.822 86.0918 221.745 86.6697L256.029 96.9383C260.744 98.3539 261.785 99.8316 264.565 103.781L264.585 103.808C265.115 104.56 265.715 105.412 266.386 106.32L289.003 136.907C287.409 136.726 285.832 136.616 284.283 136.596H284.279C284.278 136.596 284.276 136.595 284.274 136.595C278.074 136.528 274.496 134.105 270.058 129.654L259.118 118.714C258.533 118.131 258.011 117.603 257.535 117.123L257.534 117.122L257.533 117.121L257.529 117.117C252.568 112.109 251.466 111.331 243.484 108.943L217.407 101.123C215.489 100.551 213.903 99.2542 212.942 97.4717C211.979 95.6893 211.766 93.6482 212.337 91.7344Z" fill="#FFE600"/>
<path d="M190.975 162.925C189.553 163.355 188.04 163.201 186.714 162.49C185.387 161.778 184.421 160.602 183.99 159.169C183.56 157.747 183.714 156.234 184.425 154.908C185.137 153.581 186.313 152.615 187.737 152.187C187.772 152.176 187.805 152.162 187.841 152.15L200.473 148.348C200.475 148.347 200.478 148.347 200.48 148.346L207.441 146.243C210.403 145.352 213.542 147.037 214.432 149.999C215.317 152.944 213.668 156.054 210.753 156.969C210.753 156.969 197.951 160.83 197.948 160.831L190.975 162.925Z" fill="#FFE600"/>
<path d="M178.16 145.605C176.732 146.035 175.215 145.879 173.887 145.167C172.561 144.456 171.595 143.282 171.166 141.852C170.735 140.43 170.89 138.915 171.602 137.587C172.316 136.258 173.495 135.287 174.915 134.857L194.617 128.927C195.146 128.768 195.686 128.69 196.226 128.69C197.142 128.69 198.054 128.918 198.891 129.366C200.217 130.077 201.182 131.251 201.612 132.681C202.508 135.64 200.823 138.779 197.855 139.678L178.16 145.605Z" fill="#FFE600"/>
<path d="M203.786 180.242C200.833 181.136 197.7 179.451 196.804 176.495C195.913 173.531 197.598 170.394 200.565 169.503L220.265 163.561C220.791 163.403 221.33 163.324 221.866 163.324C222.784 163.324 223.697 163.553 224.535 164.004C225.862 164.717 226.829 165.894 227.257 167.318C227.685 168.742 227.528 170.259 226.814 171.586C226.1 172.914 224.923 173.881 223.5 174.308L223.494 174.31C223.494 174.31 223.493 174.31 223.492 174.31L203.786 180.242Z" fill="#FFE600"/>
<path d="M239.637 188.903C238.924 190.231 237.747 191.198 236.319 191.626L216.619 197.568C215.194 197.996 213.678 197.84 212.35 197.125C211.022 196.412 210.056 195.235 209.628 193.811C209.199 192.384 209.355 190.866 210.067 189.538C210.777 188.212 211.951 187.247 213.372 186.821C213.406 186.81 213.439 186.796 213.473 186.784L233.077 180.877C236.04 179.986 239.184 181.676 240.08 184.634C240.509 186.059 240.351 187.576 239.637 188.903Z" fill="#FFE600"/>
<path d="M332.901 274.999L321.469 263.567C322.007 262.136 322.325 260.616 322.394 259.047L323.292 238.496C323.293 238.475 323.294 238.454 323.294 238.434L324.193 208.587C324.318 204.376 324.614 202.376 324.901 201.45C325.77 201.66 327.716 202.377 331.586 204.784C335.572 207.263 341.012 211.14 349.105 217.271C349.807 217.804 350.474 218.384 351.097 219.006L370 237.901L332.901 274.999Z" fill="#FFE600"/>
</svg>
