<svg width="280" height="80" viewBox="0 0 280 80" fill="none" xmlns="http://www.w3.org/2000/svg">
<rect width="280" height="80" rx="40" fill="#9900CC"/>
<path d="M112.384 36.277H109.06C108.932 35.5668 108.694 34.9418 108.346 34.402C107.998 33.8622 107.572 33.4041 107.068 33.0277C106.563 32.6513 105.999 32.3672 105.374 32.1754C104.756 31.9837 104.099 31.8878 103.403 31.8878C102.146 31.8878 101.02 32.2038 100.026 32.8359C99.0385 33.468 98.2573 34.3949 97.682 35.6165C97.1138 36.8381 96.8297 38.3295 96.8297 40.0909C96.8297 41.8665 97.1138 43.3651 97.682 44.5866C98.2573 45.8082 99.0421 46.7315 100.036 47.3565C101.031 47.9815 102.149 48.294 103.392 48.294C104.081 48.294 104.735 48.2017 105.352 48.017C105.977 47.8253 106.542 47.5447 107.046 47.1754C107.551 46.8061 107.977 46.3551 108.325 45.8224C108.68 45.2827 108.925 44.6648 109.06 43.9688L112.384 43.9794C112.206 45.0518 111.862 46.0391 111.35 46.9411C110.846 47.8359 110.196 48.6101 109.401 49.2635C108.612 49.9098 107.71 50.4105 106.695 50.7656C105.679 51.1207 104.571 51.2983 103.371 51.2983C101.482 51.2983 99.7985 50.8509 98.3212 49.956C96.8439 49.054 95.6792 47.7649 94.8269 46.0888C93.9817 44.4126 93.5591 42.4134 93.5591 40.0909C93.5591 37.7614 93.9853 35.7621 94.8375 34.093C95.6898 32.4169 96.8546 31.1314 98.3319 30.2365C99.8091 29.3345 101.489 28.8835 103.371 28.8835C104.529 28.8835 105.608 29.0504 106.61 29.3842C107.618 29.7109 108.524 30.1939 109.326 30.8331C110.129 31.4652 110.793 32.2393 111.318 33.1555C111.844 34.0646 112.199 35.1051 112.384 36.277ZM116.067 51V34.6364H119.146V37.2358H119.316C119.615 36.3551 120.14 35.6626 120.893 35.1584C121.653 34.647 122.512 34.3913 123.471 34.3913C123.67 34.3913 123.904 34.3984 124.174 34.4126C124.451 34.4268 124.668 34.4446 124.824 34.4659V37.5128C124.696 37.4773 124.469 37.4382 124.142 37.3956C123.816 37.3459 123.489 37.321 123.162 37.321C122.409 37.321 121.738 37.4808 121.149 37.8004C120.566 38.1129 120.105 38.5497 119.764 39.1108C119.423 39.6648 119.252 40.2969 119.252 41.0071V51H116.067ZM134.047 51.3303C132.435 51.3303 131.047 50.9858 129.882 50.2969C128.724 49.6009 127.829 48.6243 127.197 47.3672C126.572 46.103 126.26 44.6222 126.26 42.9247C126.26 41.2486 126.572 39.7713 127.197 38.4929C127.829 37.2145 128.71 36.2166 129.839 35.4993C130.976 34.782 132.304 34.4233 133.824 34.4233C134.747 34.4233 135.642 34.576 136.508 34.8814C137.375 35.1868 138.153 35.6662 138.841 36.3196C139.53 36.973 140.074 37.8217 140.471 38.8658C140.869 39.9027 141.068 41.1634 141.068 42.6477V43.777H128.06V41.3906H137.947C137.947 40.5526 137.776 39.8104 137.435 39.1641C137.094 38.5107 136.615 37.9957 135.997 37.6193C135.386 37.2429 134.669 37.0547 133.845 37.0547C132.95 37.0547 132.169 37.2749 131.501 37.7152C130.841 38.1484 130.329 38.7166 129.967 39.4197C129.612 40.1158 129.434 40.8722 129.434 41.6889V43.5533C129.434 44.647 129.626 45.5774 130.01 46.3445C130.4 47.1115 130.944 47.6974 131.64 48.1023C132.336 48.5 133.149 48.6989 134.079 48.6989C134.683 48.6989 135.233 48.6136 135.731 48.4432C136.228 48.2656 136.657 48.0028 137.02 47.6548C137.382 47.3068 137.659 46.8771 137.851 46.3658L140.866 46.9091C140.624 47.7969 140.191 48.5746 139.566 49.2422C138.948 49.9027 138.17 50.4176 137.233 50.7869C136.302 51.1491 135.241 51.3303 134.047 51.3303ZM149.364 51.3622C148.327 51.3622 147.39 51.1705 146.552 50.7869C145.714 50.3963 145.05 49.8317 144.56 49.093C144.077 48.3544 143.835 47.4489 143.835 46.3764C143.835 45.4531 144.013 44.6932 144.368 44.0966C144.723 43.5 145.202 43.0277 145.806 42.6797C146.41 42.3317 147.085 42.0689 147.83 41.8913C148.576 41.7138 149.336 41.5788 150.11 41.4865C151.09 41.3729 151.886 41.2805 152.496 41.2095C153.107 41.1314 153.551 41.0071 153.828 40.8366C154.105 40.6662 154.244 40.3892 154.244 40.0057V39.9311C154.244 39.0007 153.981 38.2798 153.455 37.7685C152.937 37.2571 152.163 37.0014 151.133 37.0014C150.06 37.0014 149.215 37.2393 148.597 37.7152C147.987 38.1839 147.564 38.706 147.33 39.2812L144.336 38.5994C144.691 37.6051 145.21 36.8026 145.891 36.1918C146.58 35.5739 147.372 35.1264 148.267 34.8494C149.162 34.5653 150.103 34.4233 151.09 34.4233C151.744 34.4233 152.436 34.5014 153.168 34.6577C153.906 34.8068 154.595 35.0838 155.234 35.4886C155.881 35.8935 156.41 36.4723 156.822 37.2251C157.234 37.9709 157.44 38.9403 157.44 40.1335V51H154.329V48.7628H154.201C153.995 49.1747 153.686 49.5795 153.274 49.9773C152.862 50.375 152.333 50.7053 151.687 50.968C151.04 51.2308 150.266 51.3622 149.364 51.3622ZM150.057 48.8054C150.938 48.8054 151.69 48.6314 152.315 48.2834C152.947 47.9354 153.427 47.4808 153.754 46.9197C154.087 46.3516 154.254 45.7443 154.254 45.098V42.9886C154.141 43.1023 153.92 43.2088 153.594 43.3082C153.274 43.4006 152.908 43.4822 152.496 43.5533C152.085 43.6172 151.683 43.6776 151.293 43.7344C150.902 43.7841 150.575 43.8267 150.312 43.8622C149.695 43.9403 149.13 44.0717 148.619 44.2564C148.114 44.4411 147.71 44.7074 147.404 45.0554C147.106 45.3963 146.957 45.8509 146.957 46.419C146.957 47.2074 147.248 47.804 147.83 48.2088C148.413 48.6065 149.155 48.8054 150.057 48.8054ZM169.321 34.6364V37.1932H160.383V34.6364H169.321ZM162.78 30.7159H165.965V46.1953C165.965 46.8132 166.057 47.2784 166.242 47.5909C166.427 47.8963 166.665 48.1058 166.956 48.2195C167.254 48.326 167.577 48.3793 167.925 48.3793C168.181 48.3793 168.405 48.3615 168.596 48.326C168.788 48.2905 168.937 48.2621 169.044 48.2408L169.619 50.8722C169.434 50.9432 169.172 51.0142 168.831 51.0852C168.49 51.1634 168.064 51.206 167.552 51.2131C166.714 51.2273 165.933 51.0781 165.209 50.7656C164.484 50.4531 163.898 49.9702 163.451 49.3168C163.003 48.6634 162.78 47.843 162.78 46.8558V30.7159ZM179.721 51.3303C178.109 51.3303 176.721 50.9858 175.556 50.2969C174.398 49.6009 173.503 48.6243 172.871 47.3672C172.246 46.103 171.934 44.6222 171.934 42.9247C171.934 41.2486 172.246 39.7713 172.871 38.4929C173.503 37.2145 174.384 36.2166 175.513 35.4993C176.65 34.782 177.978 34.4233 179.498 34.4233C180.421 34.4233 181.316 34.576 182.182 34.8814C183.049 35.1868 183.826 35.6662 184.515 36.3196C185.204 36.973 185.748 37.8217 186.145 38.8658C186.543 39.9027 186.742 41.1634 186.742 42.6477V43.777H173.734V41.3906H183.62C183.62 40.5526 183.45 39.8104 183.109 39.1641C182.768 38.5107 182.289 37.9957 181.671 37.6193C181.06 37.2429 180.343 37.0547 179.519 37.0547C178.624 37.0547 177.843 37.2749 177.175 37.7152C176.515 38.1484 176.003 38.7166 175.641 39.4197C175.286 40.1158 175.108 40.8722 175.108 41.6889V43.5533C175.108 44.647 175.3 45.5774 175.684 46.3445C176.074 47.1115 176.618 47.6974 177.314 48.1023C178.01 48.5 178.823 48.6989 179.753 48.6989C180.357 48.6989 180.907 48.6136 181.404 48.4432C181.902 48.2656 182.331 48.0028 182.694 47.6548C183.056 47.3068 183.333 46.8771 183.525 46.3658L186.539 46.9091C186.298 47.7969 185.865 48.5746 185.24 49.2422C184.622 49.9027 183.844 50.4176 182.907 50.7869C181.976 51.1491 180.914 51.3303 179.721 51.3303Z" fill="white"/>
</svg>
