<svg width="240" height="80" viewBox="0 0 240 80" fill="none" xmlns="http://www.w3.org/2000/svg">
<rect width="240" height="80" rx="40" fill="#DBDBDB"/>
<path d="M97.4854 34.9134C97.3717 33.9048 96.903 33.1236 96.0791 32.5696C95.2552 32.0085 94.2183 31.728 92.9683 31.728C92.0734 31.728 91.2993 31.87 90.6459 32.1541C89.9925 32.4311 89.4846 32.8146 89.1224 33.3047C88.7673 33.7876 88.5898 34.3381 88.5898 34.956C88.5898 35.4744 88.7105 35.9219 88.952 36.2983C89.2006 36.6747 89.5237 36.9908 89.9214 37.2464C90.3263 37.495 90.7595 37.7045 91.2211 37.875C91.6828 38.0384 92.1267 38.1733 92.5528 38.2798L94.6835 38.8338C95.3795 39.0043 96.0933 39.2351 96.8248 39.5263C97.5564 39.8175 98.2346 40.201 98.8596 40.6768C99.4846 41.1527 99.9889 41.7422 100.372 42.4453C100.763 43.1484 100.958 43.9901 100.958 44.9702C100.958 46.206 100.639 47.3033 99.9996 48.2621C99.3675 49.2209 98.4477 49.9773 97.2403 50.5312C96.04 51.0852 94.5876 51.3622 92.8831 51.3622C91.2496 51.3622 89.8362 51.103 88.643 50.5845C87.4498 50.0661 86.5159 49.331 85.8412 48.3793C85.1665 47.4205 84.7936 46.2841 84.7226 44.9702H88.0251C88.089 45.7585 88.3447 46.4155 88.7922 46.9411C89.2467 47.4595 89.8256 47.8466 90.5287 48.1023C91.2389 48.3509 92.0166 48.4751 92.8618 48.4751C93.7922 48.4751 94.6196 48.3295 95.344 48.0384C96.0756 47.7401 96.6508 47.3281 97.0699 46.8026C97.4889 46.2699 97.6984 45.6484 97.6984 44.9382C97.6984 44.2919 97.5138 43.7628 97.1444 43.3509C96.7822 42.9389 96.2886 42.598 95.6636 42.3281C95.0457 42.0582 94.3461 41.8203 93.5649 41.6143L90.9868 40.9112C89.2396 40.4354 87.8547 39.7358 86.8319 38.8125C85.8163 37.8892 85.3085 36.6676 85.3085 35.1477C85.3085 33.8906 85.6494 32.7933 86.3312 31.8558C87.0131 30.9183 87.9363 30.1903 89.1011 29.6719C90.2659 29.1463 91.5798 28.8835 93.0429 28.8835C94.5202 28.8835 95.8234 29.1428 96.9527 29.6612C98.089 30.1797 98.9839 30.8935 99.6373 31.8026C100.291 32.7045 100.632 33.7415 100.66 34.9134H97.4854ZM111.689 51.3303C110.077 51.3303 108.688 50.9858 107.524 50.2969C106.366 49.6009 105.471 48.6243 104.839 47.3672C104.214 46.103 103.901 44.6222 103.901 42.9247C103.901 41.2486 104.214 39.7713 104.839 38.4929C105.471 37.2145 106.352 36.2166 107.481 35.4993C108.617 34.782 109.945 34.4233 111.465 34.4233C112.389 34.4233 113.283 34.576 114.15 34.8814C115.016 35.1868 115.794 35.6662 116.483 36.3196C117.172 36.973 117.715 37.8217 118.113 38.8658C118.511 39.9027 118.71 41.1634 118.71 42.6477V43.777H105.702V41.3906H115.588C115.588 40.5526 115.418 39.8104 115.077 39.1641C114.736 38.5107 114.256 37.9957 113.639 37.6193C113.028 37.2429 112.31 37.0547 111.487 37.0547C110.592 37.0547 109.81 37.2749 109.143 37.7152C108.482 38.1484 107.971 38.7166 107.609 39.4197C107.254 40.1158 107.076 40.8722 107.076 41.6889V43.5533C107.076 44.647 107.268 45.5774 107.651 46.3445C108.042 47.1115 108.585 47.6974 109.281 48.1023C109.977 48.5 110.791 48.6989 111.721 48.6989C112.325 48.6989 112.875 48.6136 113.372 48.4432C113.869 48.2656 114.299 48.0028 114.661 47.6548C115.024 47.3068 115.301 46.8771 115.492 46.3658L118.507 46.9091C118.266 47.7969 117.832 48.5746 117.207 49.2422C116.59 49.9027 115.812 50.4176 114.874 50.7869C113.944 51.1491 112.882 51.3303 111.689 51.3303ZM125.429 41.2841V51H122.244V34.6364H125.301V37.2997H125.504C125.88 36.4332 126.47 35.7372 127.272 35.2116C128.082 34.6861 129.101 34.4233 130.33 34.4233C131.445 34.4233 132.421 34.6577 133.259 35.1264C134.098 35.5881 134.747 36.277 135.209 37.1932C135.671 38.1094 135.902 39.2422 135.902 40.5916V51H132.716V40.9751C132.716 39.7891 132.407 38.8622 131.789 38.1946C131.171 37.5199 130.323 37.1825 129.243 37.1825C128.505 37.1825 127.848 37.3423 127.272 37.6619C126.704 37.9815 126.253 38.4503 125.919 39.0682C125.593 39.679 125.429 40.4176 125.429 41.2841ZM146.299 51.3196C144.978 51.3196 143.799 50.9822 142.762 50.3075C141.733 49.6257 140.923 48.6562 140.333 47.3991C139.751 46.1349 139.46 44.6186 139.46 42.8501C139.46 41.0817 139.755 39.5689 140.344 38.3118C140.941 37.0547 141.757 36.0923 142.794 35.4247C143.831 34.7571 145.007 34.4233 146.321 34.4233C147.336 34.4233 148.153 34.5938 148.771 34.9347C149.396 35.2685 149.879 35.6591 150.22 36.1065C150.568 36.554 150.838 36.9482 151.029 37.2891H151.221V29.1818H154.407V51H151.296V48.4538H151.029C150.838 48.8018 150.561 49.1996 150.198 49.647C149.843 50.0945 149.353 50.4851 148.728 50.8189C148.103 51.1527 147.294 51.3196 146.299 51.3196ZM147.002 48.603C147.919 48.603 148.693 48.3615 149.325 47.8786C149.964 47.3885 150.447 46.7102 150.774 45.8438C151.108 44.9773 151.274 43.9687 151.274 42.8182C151.274 41.6818 151.111 40.6875 150.784 39.8352C150.458 38.983 149.978 38.3189 149.346 37.843C148.714 37.3672 147.933 37.1293 147.002 37.1293C146.044 37.1293 145.245 37.3778 144.605 37.875C143.966 38.3722 143.483 39.0504 143.157 39.9098C142.837 40.7692 142.677 41.7386 142.677 42.8182C142.677 43.9119 142.84 44.8956 143.167 45.7692C143.494 46.6428 143.977 47.3352 144.616 47.8466C145.262 48.3509 146.058 48.603 147.002 48.603Z" fill="white"/>
</svg>
