<svg width="280" height="80" viewBox="0 0 280 80" fill="none" xmlns="http://www.w3.org/2000/svg">
<rect width="280" height="80" rx="40" fill="#004BBD"/>
<path d="M53.5449 34.9134C53.4313 33.9048 52.9625 33.1236 52.1387 32.5696C51.3148 32.0085 50.2779 31.728 49.0279 31.728C48.133 31.728 47.3588 31.87 46.7054 32.1541C46.052 32.4311 45.5442 32.8146 45.182 33.3047C44.8269 33.7876 44.6493 34.3381 44.6493 34.956C44.6493 35.4744 44.7701 35.9219 45.0115 36.2983C45.2601 36.6747 45.5833 36.9908 45.981 37.2464C46.3858 37.495 46.8191 37.7045 47.2807 37.875C47.7424 38.0384 48.1863 38.1733 48.6124 38.2798L50.7431 38.8338C51.4391 39.0043 52.1529 39.2351 52.8844 39.5263C53.6159 39.8175 54.2942 40.201 54.9192 40.6768C55.5442 41.1527 56.0485 41.7422 56.432 42.4453C56.8226 43.1484 57.0179 43.9901 57.0179 44.9702C57.0179 46.206 56.6983 47.3033 56.0591 48.2621C55.427 49.2209 54.5073 49.9773 53.2999 50.5312C52.0996 51.0852 50.6472 51.3622 48.9426 51.3622C47.3091 51.3622 45.8958 51.103 44.7026 50.5845C43.5094 50.0661 42.5755 49.331 41.9007 48.3793C41.226 47.4205 40.8532 46.2841 40.7821 44.9702H44.0847C44.1486 45.7585 44.4043 46.4155 44.8517 46.9411C45.3063 47.4595 45.8851 47.8466 46.5882 48.1023C47.2985 48.3509 48.0762 48.4751 48.9213 48.4751C49.8517 48.4751 50.6792 48.3295 51.4036 48.0384C52.1351 47.7401 52.7104 47.3281 53.1294 46.8026C53.5485 46.2699 53.758 45.6484 53.758 44.9382C53.758 44.2919 53.5733 43.7628 53.204 43.3509C52.8418 42.9389 52.3482 42.598 51.7232 42.3281C51.1053 42.0582 50.4057 41.8203 49.6245 41.6143L47.0463 40.9112C45.2992 40.4354 43.9142 39.7358 42.8915 38.8125C41.8759 37.8892 41.3681 36.6676 41.3681 35.1477C41.3681 33.8906 41.709 32.7933 42.3908 31.8558C43.0726 30.9183 43.9959 30.1903 45.1607 29.6719C46.3255 29.1463 47.6394 28.8835 49.1025 28.8835C50.5797 28.8835 51.883 29.1428 53.0123 29.6612C54.1486 30.1797 55.0435 30.8935 55.6969 31.8026C56.3503 32.7045 56.6912 33.7415 56.7196 34.9134H53.5449ZM67.7486 51.3303C66.1364 51.3303 64.7479 50.9858 63.5831 50.2969C62.4254 49.6009 61.5305 48.6243 60.8984 47.3672C60.2734 46.103 59.9609 44.6222 59.9609 42.9247C59.9609 41.2486 60.2734 39.7713 60.8984 38.4929C61.5305 37.2145 62.4112 36.2166 63.5405 35.4993C64.6768 34.782 66.005 34.4233 67.5249 34.4233C68.4482 34.4233 69.343 34.576 70.2095 34.8814C71.076 35.1868 71.8537 35.6662 72.5426 36.3196C73.2315 36.973 73.7749 37.8217 74.1726 38.8658C74.5703 39.9027 74.7692 41.1634 74.7692 42.6477V43.777H61.7614V41.3906H71.6477C71.6477 40.5526 71.4773 39.8104 71.1364 39.1641C70.7955 38.5107 70.3161 37.9957 69.6982 37.6193C69.0874 37.2429 68.37 37.0547 67.5462 37.0547C66.6513 37.0547 65.87 37.2749 65.2024 37.7152C64.5419 38.1484 64.0305 38.7166 63.6683 39.4197C63.3132 40.1158 63.1357 40.8722 63.1357 41.6889V43.5533C63.1357 44.647 63.3274 45.5774 63.7109 46.3445C64.1016 47.1115 64.6449 47.6974 65.3409 48.1023C66.0369 48.5 66.8501 48.6989 67.7805 48.6989C68.3842 48.6989 68.9347 48.6136 69.4318 48.4432C69.929 48.2656 70.3587 48.0028 70.7209 47.6548C71.0831 47.3068 71.3601 46.8771 71.5518 46.3658L74.5668 46.9091C74.3253 47.7969 73.892 48.5746 73.267 49.2422C72.6491 49.9027 71.8714 50.4176 70.9339 50.7869C70.0036 51.1491 68.9418 51.3303 67.7486 51.3303ZM85.356 51.3303C83.7438 51.3303 82.3553 50.9858 81.1905 50.2969C80.0328 49.6009 79.138 48.6243 78.5059 47.3672C77.8809 46.103 77.5684 44.6222 77.5684 42.9247C77.5684 41.2486 77.8809 39.7713 78.5059 38.4929C79.138 37.2145 80.0186 36.2166 81.1479 35.4993C82.2843 34.782 83.6124 34.4233 85.1323 34.4233C86.0556 34.4233 86.9505 34.576 87.8169 34.8814C88.6834 35.1868 89.4611 35.6662 90.15 36.3196C90.839 36.973 91.3823 37.8217 91.78 38.8658C92.1777 39.9027 92.3766 41.1634 92.3766 42.6477V43.777H79.3688V41.3906H89.2551C89.2551 40.5526 89.0847 39.8104 88.7438 39.1641C88.4029 38.5107 87.9235 37.9957 87.3056 37.6193C86.6948 37.2429 85.9775 37.0547 85.1536 37.0547C84.2587 37.0547 83.4775 37.2749 82.8098 37.7152C82.1493 38.1484 81.638 38.7166 81.2757 39.4197C80.9206 40.1158 80.7431 40.8722 80.7431 41.6889V43.5533C80.7431 44.647 80.9348 45.5774 81.3184 46.3445C81.709 47.1115 82.2523 47.6974 82.9483 48.1023C83.6444 48.5 84.4576 48.6989 85.388 48.6989C85.9917 48.6989 86.5421 48.6136 87.0392 48.4432C87.5364 48.2656 87.9661 48.0028 88.3283 47.6548C88.6905 47.3068 88.9675 46.8771 89.1593 46.3658L92.1742 46.9091C91.9327 47.7969 91.4995 48.5746 90.8745 49.2422C90.2566 49.9027 89.4789 50.4176 88.5414 50.7869C87.611 51.1491 86.5492 51.3303 85.356 51.3303ZM116.112 38.6314L113.225 39.1428C113.105 38.7734 112.913 38.4219 112.65 38.0881C112.394 37.7543 112.046 37.4808 111.606 37.2678C111.166 37.0547 110.615 36.9482 109.955 36.9482C109.053 36.9482 108.3 37.1506 107.696 37.5554C107.093 37.9531 106.791 38.468 106.791 39.1001C106.791 39.647 106.993 40.0874 107.398 40.4212C107.803 40.755 108.456 41.0284 109.358 41.2415L111.958 41.8381C113.463 42.1861 114.585 42.7223 115.324 43.4467C116.063 44.1712 116.432 45.1122 116.432 46.2699C116.432 47.25 116.148 48.1236 115.58 48.8906C115.019 49.6506 114.234 50.2472 113.225 50.6804C112.224 51.1136 111.063 51.3303 109.742 51.3303C107.909 51.3303 106.414 50.9396 105.257 50.1584C104.099 49.37 103.389 48.2514 103.126 46.8026L106.205 46.3338C106.396 47.1364 106.791 47.7436 107.387 48.1555C107.984 48.5604 108.762 48.7628 109.72 48.7628C110.764 48.7628 111.599 48.5462 112.224 48.1129C112.849 47.6726 113.161 47.1364 113.161 46.5043C113.161 45.9929 112.97 45.5632 112.586 45.2152C112.21 44.8672 111.631 44.6044 110.85 44.4268L108.08 43.8196C106.553 43.4716 105.423 42.9176 104.692 42.1577C103.968 41.3977 103.605 40.4354 103.605 39.2706C103.605 38.3047 103.875 37.4595 104.415 36.7351C104.955 36.0107 105.7 35.446 106.652 35.0412C107.604 34.6293 108.694 34.4233 109.923 34.4233C111.691 34.4233 113.083 34.8068 114.099 35.5739C115.115 36.3338 115.786 37.353 116.112 38.6314ZM126.827 51.3303C125.293 51.3303 123.954 50.9787 122.811 50.2756C121.667 49.5724 120.779 48.5888 120.147 47.3246C119.515 46.0604 119.199 44.5831 119.199 42.8928C119.199 41.1953 119.515 39.7109 120.147 38.4396C120.779 37.1683 121.667 36.1811 122.811 35.478C123.954 34.7749 125.293 34.4233 126.827 34.4233C128.361 34.4233 129.7 34.7749 130.843 35.478C131.987 36.1811 132.875 37.1683 133.507 38.4396C134.139 39.7109 134.455 41.1953 134.455 42.8928C134.455 44.5831 134.139 46.0604 133.507 47.3246C132.875 48.5888 131.987 49.5724 130.843 50.2756C129.7 50.9787 128.361 51.3303 126.827 51.3303ZM126.838 48.6562C127.832 48.6562 128.656 48.3935 129.309 47.8679C129.963 47.3423 130.446 46.6428 130.758 45.7692C131.078 44.8956 131.238 43.9332 131.238 42.8821C131.238 41.8381 131.078 40.8793 130.758 40.0057C130.446 39.125 129.963 38.4183 129.309 37.8857C128.656 37.353 127.832 37.0866 126.838 37.0866C125.836 37.0866 125.005 37.353 124.345 37.8857C123.691 38.4183 123.205 39.125 122.885 40.0057C122.573 40.8793 122.417 41.8381 122.417 42.8821C122.417 43.9332 122.573 44.8956 122.885 45.7692C123.205 46.6428 123.691 47.3423 124.345 47.8679C125.005 48.3935 125.836 48.6562 126.838 48.6562ZM148.376 44.2138V34.6364H151.572V51H148.44V48.1662H148.27C147.893 49.0398 147.29 49.7678 146.459 50.3501C145.635 50.9254 144.608 51.2131 143.38 51.2131C142.329 51.2131 141.398 50.9822 140.589 50.5206C139.786 50.0518 139.154 49.3594 138.692 48.4432C138.238 47.527 138.01 46.3942 138.01 45.0447V34.6364H141.196V44.6612C141.196 45.7763 141.505 46.6641 142.123 47.3246C142.741 47.9851 143.543 48.3153 144.53 48.3153C145.127 48.3153 145.72 48.1662 146.309 47.8679C146.906 47.5696 147.4 47.1186 147.79 46.5149C148.188 45.9112 148.383 45.1442 148.376 44.2138ZM169.851 34.6364L163.917 51H160.508L154.563 34.6364H157.983L162.127 47.2287H162.298L166.431 34.6364H169.851ZM179.34 51.3303C177.728 51.3303 176.34 50.9858 175.175 50.2969C174.017 49.6009 173.122 48.6243 172.49 47.3672C171.865 46.103 171.553 44.6222 171.553 42.9247C171.553 41.2486 171.865 39.7713 172.49 38.4929C173.122 37.2145 174.003 36.2166 175.132 35.4993C176.269 34.782 177.597 34.4233 179.117 34.4233C180.04 34.4233 180.935 34.576 181.801 34.8814C182.668 35.1868 183.445 35.6662 184.134 36.3196C184.823 36.973 185.367 37.8217 185.764 38.8658C186.162 39.9027 186.361 41.1634 186.361 42.6477V43.777H173.353V41.3906H183.24C183.24 40.5526 183.069 39.8104 182.728 39.1641C182.387 38.5107 181.908 37.9957 181.29 37.6193C180.679 37.2429 179.962 37.0547 179.138 37.0547C178.243 37.0547 177.462 37.2749 176.794 37.7152C176.134 38.1484 175.622 38.7166 175.26 39.4197C174.905 40.1158 174.727 40.8722 174.727 41.6889V43.5533C174.727 44.647 174.919 45.5774 175.303 46.3445C175.693 47.1115 176.237 47.6974 176.933 48.1023C177.629 48.5 178.442 48.6989 179.372 48.6989C179.976 48.6989 180.526 48.6136 181.024 48.4432C181.521 48.2656 181.95 48.0028 182.313 47.6548C182.675 47.3068 182.952 46.8771 183.144 46.3658L186.159 46.9091C185.917 47.7969 185.484 48.5746 184.859 49.2422C184.241 49.9027 183.463 50.4176 182.526 50.7869C181.595 51.1491 180.534 51.3303 179.34 51.3303ZM193.081 41.2841V51H189.895V34.6364H192.953V37.2997H193.155C193.532 36.4332 194.121 35.7372 194.924 35.2116C195.733 34.6861 196.752 34.4233 197.981 34.4233C199.096 34.4233 200.073 34.6577 200.911 35.1264C201.749 35.5881 202.399 36.277 202.86 37.1932C203.322 38.1094 203.553 39.2422 203.553 40.5916V51H200.368V40.9751C200.368 39.7891 200.059 38.8622 199.441 38.1946C198.823 37.5199 197.974 37.1825 196.895 37.1825C196.156 37.1825 195.499 37.3423 194.924 37.6619C194.355 37.9815 193.904 38.4503 193.571 39.0682C193.244 39.679 193.081 40.4176 193.081 41.2841ZM207.825 51V34.6364H211.01V51H207.825ZM209.434 32.1115C208.88 32.1115 208.404 31.9268 208.006 31.5575C207.615 31.1811 207.42 30.7337 207.42 30.2152C207.42 29.6896 207.615 29.2422 208.006 28.8729C208.404 28.4964 208.88 28.3082 209.434 28.3082C209.988 28.3082 210.46 28.4964 210.85 28.8729C211.248 29.2422 211.447 29.6896 211.447 30.2152C211.447 30.7337 211.248 31.1811 210.85 31.5575C210.46 31.9268 209.988 32.1115 209.434 32.1115ZM215.296 51V34.6364H218.374V37.2358H218.545C218.843 36.3551 219.369 35.6626 220.122 35.1584C220.882 34.647 221.741 34.3913 222.7 34.3913C222.899 34.3913 223.133 34.3984 223.403 34.4126C223.68 34.4268 223.896 34.4446 224.053 34.4659V37.5128C223.925 37.4773 223.698 37.4382 223.371 37.3956C223.044 37.3459 222.718 37.321 222.391 37.321C221.638 37.321 220.967 37.4808 220.377 37.8004C219.795 38.1129 219.333 38.5497 218.992 39.1108C218.651 39.6648 218.481 40.2969 218.481 41.0071V51H215.296ZM239.071 38.6314L236.184 39.1428C236.064 38.7734 235.872 38.4219 235.609 38.0881C235.353 37.7543 235.005 37.4808 234.565 37.2678C234.125 37.0547 233.574 36.9482 232.914 36.9482C232.012 36.9482 231.259 37.1506 230.655 37.5554C230.051 37.9531 229.75 38.468 229.75 39.1001C229.75 39.647 229.952 40.0874 230.357 40.4212C230.762 40.755 231.415 41.0284 232.317 41.2415L234.917 41.8381C236.422 42.1861 237.544 42.7223 238.283 43.4467C239.022 44.1712 239.391 45.1122 239.391 46.2699C239.391 47.25 239.107 48.1236 238.539 48.8906C237.978 49.6506 237.193 50.2472 236.184 50.6804C235.183 51.1136 234.022 51.3303 232.701 51.3303C230.868 51.3303 229.373 50.9396 228.216 50.1584C227.058 49.37 226.348 48.2514 226.085 46.8026L229.164 46.3338C229.355 47.1364 229.75 47.7436 230.346 48.1555C230.943 48.5604 231.721 48.7628 232.679 48.7628C233.723 48.7628 234.558 48.5462 235.183 48.1129C235.808 47.6726 236.12 47.1364 236.12 46.5043C236.12 45.9929 235.929 45.5632 235.545 45.2152C235.169 44.8672 234.59 44.6044 233.809 44.4268L231.039 43.8196C229.512 43.4716 228.382 42.9176 227.651 42.1577C226.926 41.3977 226.564 40.4354 226.564 39.2706C226.564 38.3047 226.834 37.4595 227.374 36.7351C227.914 36.0107 228.659 35.446 229.611 35.0412C230.563 34.6293 231.653 34.4233 232.882 34.4233C234.65 34.4233 236.042 34.8068 237.058 35.5739C238.074 36.3338 238.745 37.353 239.071 38.6314Z" fill="white"/>
</svg>
