<svg width="280" height="80" viewBox="0 0 280 80" fill="none" xmlns="http://www.w3.org/2000/svg">
<rect width="280" height="80" rx="40" fill="#DB0000"/>
<path d="M57.524 51V29.1818H65.301C66.9913 29.1818 68.394 29.473 69.5091 30.0554C70.6312 30.6378 71.4693 31.4439 72.0233 32.4737C72.5772 33.4964 72.8542 34.679 72.8542 36.0213C72.8542 37.3565 72.5737 38.532 72.0126 39.5476C71.4586 40.5561 70.6206 41.3409 69.4984 41.902C68.3833 42.4631 66.9806 42.7436 65.2903 42.7436H59.399V39.9098H64.992C66.0574 39.9098 66.9238 39.7571 67.5914 39.4517C68.2662 39.1463 68.7598 38.7024 69.0723 38.12C69.3848 37.5376 69.541 36.8381 69.541 36.0213C69.541 35.1974 69.3812 34.4837 69.0616 33.88C68.7491 33.2763 68.2555 32.8146 67.5808 32.495C66.9132 32.1683 66.036 32.005 64.9494 32.005H60.8159V51H57.524ZM68.2946 41.1562L73.6852 51H69.9352L64.6511 41.1562H68.2946ZM83.4517 51.3303C81.8395 51.3303 80.451 50.9858 79.2862 50.2969C78.1286 49.6009 77.2337 48.6243 76.6016 47.3672C75.9766 46.103 75.6641 44.6222 75.6641 42.9247C75.6641 41.2486 75.9766 39.7713 76.6016 38.4929C77.2337 37.2145 78.1143 36.2166 79.2436 35.4993C80.38 34.782 81.7081 34.4233 83.228 34.4233C84.1513 34.4233 85.0462 34.576 85.9126 34.8814C86.7791 35.1868 87.5568 35.6662 88.2457 36.3196C88.9347 36.973 89.478 37.8217 89.8757 38.8658C90.2734 39.9027 90.4723 41.1634 90.4723 42.6477V43.777H77.4645V41.3906H87.3509C87.3509 40.5526 87.1804 39.8104 86.8395 39.1641C86.4986 38.5107 86.0192 37.9957 85.4013 37.6193C84.7905 37.2429 84.0732 37.0547 83.2493 37.0547C82.3544 37.0547 81.5732 37.2749 80.9055 37.7152C80.245 38.1484 79.7337 38.7166 79.3714 39.4197C79.0163 40.1158 78.8388 40.8722 78.8388 41.6889V43.5533C78.8388 44.647 79.0305 45.5774 79.4141 46.3445C79.8047 47.1115 80.348 47.6974 81.044 48.1023C81.7401 48.5 82.5533 48.6989 83.4837 48.6989C84.0874 48.6989 84.6378 48.6136 85.1349 48.4432C85.6321 48.2656 86.0618 48.0028 86.424 47.6548C86.7862 47.3068 87.0632 46.8771 87.255 46.3658L90.2699 46.9091C90.0284 47.7969 89.5952 48.5746 88.9702 49.2422C88.3523 49.9027 87.5746 50.4176 86.6371 50.7869C85.7067 51.1491 84.6449 51.3303 83.4517 51.3303ZM100.899 51.3303C99.3155 51.3303 97.9519 50.9716 96.8084 50.2543C95.6721 49.5298 94.7985 48.532 94.1877 47.2607C93.5769 45.9893 93.2715 44.5334 93.2715 42.8928C93.2715 41.2308 93.584 39.7642 94.209 38.4929C94.834 37.2145 95.7147 36.2166 96.851 35.4993C97.9874 34.782 99.3262 34.4233 100.867 34.4233C102.11 34.4233 103.218 34.6541 104.191 35.1158C105.164 35.5703 105.949 36.2095 106.546 37.0334C107.149 37.8572 107.508 38.8196 107.622 39.9205H104.521C104.351 39.1534 103.96 38.4929 103.35 37.9389C102.746 37.3849 101.936 37.108 100.921 37.108C100.033 37.108 99.2551 37.3423 98.5875 37.8111C97.927 38.2727 97.4121 38.9332 97.0428 39.7926C96.6735 40.6449 96.4888 41.6534 96.4888 42.8182C96.4888 44.0114 96.6699 45.0412 97.0321 45.9077C97.3944 46.7741 97.9057 47.4453 98.5662 47.9212C99.2338 48.397 100.019 48.6349 100.921 48.6349C101.524 48.6349 102.071 48.5249 102.561 48.3047C103.058 48.0774 103.474 47.7543 103.808 47.3352C104.149 46.9162 104.387 46.4119 104.521 45.8224H107.622C107.508 46.8807 107.164 47.8253 106.588 48.6562C106.013 49.4872 105.242 50.1406 104.276 50.6165C103.318 51.0923 102.192 51.3303 100.899 51.3303ZM117.921 51.3303C116.387 51.3303 115.048 50.9787 113.904 50.2756C112.761 49.5724 111.873 48.5888 111.241 47.3246C110.609 46.0604 110.293 44.5831 110.293 42.8928C110.293 41.1953 110.609 39.7109 111.241 38.4396C111.873 37.1683 112.761 36.1811 113.904 35.478C115.048 34.7749 116.387 34.4233 117.921 34.4233C119.455 34.4233 120.794 34.7749 121.937 35.478C123.081 36.1811 123.968 37.1683 124.6 38.4396C125.233 39.7109 125.549 41.1953 125.549 42.8928C125.549 44.5831 125.233 46.0604 124.6 47.3246C123.968 48.5888 123.081 49.5724 121.937 50.2756C120.794 50.9787 119.455 51.3303 117.921 51.3303ZM117.931 48.6562C118.926 48.6562 119.75 48.3935 120.403 47.8679C121.056 47.3423 121.539 46.6428 121.852 45.7692C122.172 44.8956 122.331 43.9332 122.331 42.8821C122.331 41.8381 122.172 40.8793 121.852 40.0057C121.539 39.125 121.056 38.4183 120.403 37.8857C119.75 37.353 118.926 37.0866 117.931 37.0866C116.93 37.0866 116.099 37.353 115.439 37.8857C114.785 38.4183 114.299 39.125 113.979 40.0057C113.667 40.8793 113.51 41.8381 113.51 42.8821C113.51 43.9332 113.667 44.8956 113.979 45.7692C114.299 46.6428 114.785 47.3423 115.439 47.8679C116.099 48.3935 116.93 48.6562 117.931 48.6562ZM129.104 51V34.6364H132.183V37.2358H132.354C132.652 36.3551 133.177 35.6626 133.93 35.1584C134.69 34.647 135.55 34.3913 136.508 34.3913C136.707 34.3913 136.942 34.3984 137.211 34.4126C137.488 34.4268 137.705 34.4446 137.861 34.4659V37.5128C137.733 37.4773 137.506 37.4382 137.18 37.3956C136.853 37.3459 136.526 37.321 136.199 37.321C135.447 37.321 134.775 37.4808 134.186 37.8004C133.604 38.1129 133.142 38.5497 132.801 39.1108C132.46 39.6648 132.29 40.2969 132.29 41.0071V51H129.104ZM146.158 51.3196C144.837 51.3196 143.658 50.9822 142.621 50.3075C141.591 49.6257 140.781 48.6562 140.192 47.3991C139.609 46.1349 139.318 44.6186 139.318 42.8501C139.318 41.0817 139.613 39.5689 140.202 38.3118C140.799 37.0547 141.616 36.0923 142.653 35.4247C143.69 34.7571 144.865 34.4233 146.179 34.4233C147.195 34.4233 148.011 34.5938 148.629 34.9347C149.254 35.2685 149.737 35.6591 150.078 36.1065C150.426 36.554 150.696 36.9482 150.888 37.2891H151.08V29.1818H154.265V51H151.154V48.4538H150.888C150.696 48.8018 150.419 49.1996 150.057 49.647C149.702 50.0945 149.212 50.4851 148.587 50.8189C147.962 51.1527 147.152 51.3196 146.158 51.3196ZM146.861 48.603C147.777 48.603 148.551 48.3615 149.183 47.8786C149.822 47.3885 150.305 46.7102 150.632 45.8438C150.966 44.9773 151.133 43.9687 151.133 42.8182C151.133 41.6818 150.969 40.6875 150.643 39.8352C150.316 38.983 149.837 38.3189 149.205 37.843C148.572 37.3672 147.791 37.1293 146.861 37.1293C145.902 37.1293 145.103 37.3778 144.464 37.875C143.825 38.3722 143.342 39.0504 143.015 39.9098C142.695 40.7692 142.536 41.7386 142.536 42.8182C142.536 43.9119 142.699 44.8956 143.026 45.7692C143.352 46.6428 143.835 47.3352 144.474 47.8466C145.121 48.3509 145.916 48.603 146.861 48.603ZM169.936 41.2841V51H166.751V34.6364H169.808V37.2997H170.011C170.387 36.4332 170.977 35.7372 171.779 35.2116C172.589 34.6861 173.608 34.4233 174.837 34.4233C175.952 34.4233 176.928 34.6577 177.766 35.1264C178.604 35.5881 179.254 36.277 179.716 37.1932C180.178 38.1094 180.408 39.2422 180.408 40.5916V51H177.223V40.9751C177.223 39.7891 176.914 38.8622 176.296 38.1946C175.678 37.5199 174.83 37.1825 173.75 37.1825C173.011 37.1825 172.354 37.3423 171.779 37.6619C171.211 37.9815 170.76 38.4503 170.426 39.0682C170.099 39.679 169.936 40.4176 169.936 41.2841ZM191.733 51.3303C190.121 51.3303 188.732 50.9858 187.567 50.2969C186.41 49.6009 185.515 48.6243 184.883 47.3672C184.258 46.103 183.945 44.6222 183.945 42.9247C183.945 41.2486 184.258 39.7713 184.883 38.4929C185.515 37.2145 186.396 36.2166 187.525 35.4993C188.661 34.782 189.989 34.4233 191.509 34.4233C192.433 34.4233 193.327 34.576 194.194 34.8814C195.06 35.1868 195.838 35.6662 196.527 36.3196C197.216 36.973 197.759 37.8217 198.157 38.8658C198.555 39.9027 198.754 41.1634 198.754 42.6477V43.777H185.746V41.3906H195.632C195.632 40.5526 195.462 39.8104 195.121 39.1641C194.78 38.5107 194.3 37.9957 193.683 37.6193C193.072 37.2429 192.354 37.0547 191.531 37.0547C190.636 37.0547 189.854 37.2749 189.187 37.7152C188.526 38.1484 188.015 38.7166 187.653 39.4197C187.298 40.1158 187.12 40.8722 187.12 41.6889V43.5533C187.12 44.647 187.312 45.5774 187.695 46.3445C188.086 47.1115 188.629 47.6974 189.325 48.1023C190.021 48.5 190.835 48.6989 191.765 48.6989C192.369 48.6989 192.919 48.6136 193.416 48.4432C193.913 48.2656 194.343 48.0028 194.705 47.6548C195.067 47.3068 195.344 46.8771 195.536 46.3658L198.551 46.9091C198.31 47.7969 197.876 48.5746 197.251 49.2422C196.634 49.9027 195.856 50.4176 194.918 50.7869C193.988 51.1491 192.926 51.3303 191.733 51.3303ZM205.806 51L200.991 34.6364H204.283L207.489 46.6534H207.649L210.866 34.6364H214.158L217.354 46.6001H217.514L220.7 34.6364H223.991L219.187 51H215.938L212.614 39.1854H212.369L209.045 51H205.806Z" fill="white"/>
</svg>
