<svg width="60" height="60" viewBox="0 0 60 60" fill="none" xmlns="http://www.w3.org/2000/svg">
<g filter="url(#filter0_b_25_387)">
<circle cx="30" cy="30" r="30" fill="black" fill-opacity="0.14"/>
</g>
<path d="M17.5712 29.6873C17.5712 31.9571 18.0373 33.9722 18.9695 35.7324C19.9018 37.4927 21.2017 38.9026 22.8693 39.9622C24.5369 41.0218 26.4767 41.6443 28.6885 41.8296V45.877H22.2439C21.8734 45.877 21.5607 46.0044 21.3059 46.2592C21.0511 46.5139 20.9237 46.8266 20.9237 47.1972C20.9237 47.5562 21.0511 47.8631 21.3059 48.1179C21.5607 48.3726 21.8734 48.5 22.2439 48.5H37.7561C38.1267 48.5 38.4394 48.3726 38.6942 48.1179C38.949 47.8631 39.0763 47.5562 39.0763 47.1972C39.0763 46.8266 38.949 46.5139 38.6942 46.2592C38.4394 46.0044 38.1267 45.877 37.7561 45.877H31.3115V41.8296C33.5234 41.6443 35.4632 41.0218 37.1308 39.9622C38.7984 38.9026 40.0983 37.4927 41.0306 35.7324C41.9628 33.9722 42.4289 31.9571 42.4289 29.6873V26.1611C42.4289 25.802 42.3015 25.4951 42.0468 25.2404C41.792 24.9856 41.4851 24.8582 41.1261 24.8582C40.7555 24.8582 40.4429 24.9856 40.1881 25.2404C39.9333 25.4951 39.8059 25.802 39.8059 26.1611V29.5831C39.8059 31.5518 39.4006 33.2773 38.5899 34.7596C37.7793 36.242 36.6415 37.3913 35.1766 38.2078C33.7116 39.0242 31.989 39.4324 30.0088 39.4324C28.0285 39.4324 26.3029 39.0242 24.8322 38.2078C23.3615 37.3913 22.2208 36.242 21.4101 34.7596C20.5995 33.2773 20.1942 31.5518 20.1942 29.5831V26.1611C20.1942 25.802 20.0668 25.4951 19.812 25.2404C19.5572 24.9856 19.2446 24.8582 18.874 24.8582C18.515 24.8582 18.2081 24.9856 17.9533 25.2404C17.6986 25.4951 17.5712 25.802 17.5712 26.1611V29.6873ZM30.0088 35.6977C31.1552 35.6977 32.1656 35.4313 33.04 34.8986C33.9143 34.3659 34.5918 33.6276 35.0724 32.6838C35.553 31.74 35.7933 30.6485 35.7933 29.4094V17.7883C35.7933 16.5491 35.553 15.4577 35.0724 14.5138C34.5918 13.57 33.9143 12.8318 33.04 12.2991C32.1656 11.7664 31.1552 11.5 30.0088 11.5C28.8507 11.5 27.8374 11.7664 26.9688 12.2991C26.1003 12.8318 25.4228 13.57 24.9364 14.5138C24.45 15.4577 24.2069 16.5491 24.2069 17.7883V29.4094C24.2069 30.6485 24.45 31.74 24.9364 32.6838C25.4228 33.6276 26.1003 34.3659 26.9688 34.8986C27.8374 35.4313 28.8507 35.6977 30.0088 35.6977Z" fill="white" fill-opacity="0.62"/>
<defs>
<filter id="filter0_b_25_387" x="-8" y="-8" width="76" height="76" filterUnits="userSpaceOnUse" color-interpolation-filters="sRGB">
<feFlood flood-opacity="0" result="BackgroundImageFix"/>
<feGaussianBlur in="BackgroundImage" stdDeviation="4"/>
<feComposite in2="SourceAlpha" operator="in" result="effect1_backgroundBlur_25_387"/>
<feBlend mode="normal" in="SourceGraphic" in2="effect1_backgroundBlur_25_387" result="shape"/>
</filter>
</defs>
</svg>
