<svg width="48" height="48" viewBox="0 0 48 48" fill="none" xmlns="http://www.w3.org/2000/svg">
<path d="M24 48C37.1294 48 48 37.1059 48 24C48 10.8706 37.1059 0 23.9765 0C10.8706 0 0 10.8706 0 24C0 37.1059 10.8941 48 24 48ZM24 44C12.8941 44 4.02353 35.1059 4.02353 24C4.02353 12.8941 12.8706 4 23.9765 4C35.0824 4 43.9765 12.8941 44 24C44.0235 35.1059 35.1059 44 24 44ZM28.6353 35.6471C29.3647 34.9412 29.3412 33.7882 28.6588 33.1294L18.9882 24.0235L28.6588 14.9412C29.3647 14.2588 29.3412 13.0824 28.6118 12.4235C27.9529 11.7647 26.8706 11.8118 26.1412 12.4941L16.3529 21.7176C15.0118 22.9647 15.0118 25.1059 16.3529 26.3294L26.1412 35.5765C26.8 36.2118 28.0235 36.2588 28.6353 35.6471Z" fill="black" fill-opacity="0.2"/>
</svg>
