<svg width="139" height="48" viewBox="0 0 139 48" fill="none" xmlns="http://www.w3.org/2000/svg">
<rect width="139" height="48" rx="24" fill="#FFE600"/>
<path d="M24.506 21.7717H22.5138C22.457 21.445 22.3522 21.1555 22.1995 20.9034C22.0468 20.6477 21.8568 20.4311 21.6296 20.2536C21.4023 20.076 21.1431 19.9428 20.8519 19.854C20.5642 19.7617 20.2535 19.7156 19.9197 19.7156C19.3267 19.7156 18.8011 19.8647 18.343 20.163C17.8849 20.4577 17.5262 20.891 17.267 21.4627C17.0078 22.0309 16.8782 22.7251 16.8782 23.5455C16.8782 24.38 17.0078 25.0831 17.267 25.6548C17.5298 26.223 17.8884 26.6527 18.343 26.9439C18.8011 27.2315 19.3249 27.3754 19.9144 27.3754C20.2411 27.3754 20.5465 27.3327 20.8306 27.2475C21.1182 27.1587 21.3757 27.0291 21.6029 26.8587C21.8338 26.6882 22.0273 26.4787 22.1835 26.2301C22.3434 25.9815 22.4534 25.6974 22.5138 25.3778L24.506 25.3885C24.4314 25.907 24.2698 26.3935 24.0213 26.848C23.7762 27.3026 23.4549 27.7038 23.0571 28.0518C22.6594 28.3963 22.1942 28.6662 21.6615 28.8615C21.1289 29.0533 20.5376 29.1491 19.8877 29.1491C18.9289 29.1491 18.0731 28.9272 17.3203 28.4833C16.5674 28.0394 15.9744 27.3984 15.5411 26.5604C15.1079 25.7223 14.8913 24.7173 14.8913 23.5455C14.8913 22.37 15.1097 21.3651 15.5465 20.5305C15.9833 19.6925 16.5781 19.0515 17.3309 18.6076C18.0838 18.1637 18.936 17.9418 19.8877 17.9418C20.495 17.9418 21.0596 18.027 21.5816 18.1974C22.1036 18.3679 22.5688 18.6183 22.9772 18.9485C23.3856 19.2752 23.7212 19.6765 23.984 20.1523C24.2503 20.6246 24.4243 21.1644 24.506 21.7717ZM29.7994 29.1598C29.0004 29.1598 28.3079 28.984 27.722 28.6325C27.1361 28.2809 26.6815 27.7891 26.3584 27.157C26.0388 26.5249 25.879 25.7862 25.879 24.9411C25.879 24.0959 26.0388 23.3555 26.3584 22.7198C26.6815 22.0842 27.1361 21.5906 27.722 21.239C28.3079 20.8874 29.0004 20.7116 29.7994 20.7116C30.5984 20.7116 31.2909 20.8874 31.8768 21.239C32.4628 21.5906 32.9155 22.0842 33.2351 22.7198C33.5583 23.3555 33.7199 24.0959 33.7199 24.9411C33.7199 25.7862 33.5583 26.5249 33.2351 27.157C32.9155 27.7891 32.4628 28.2809 31.8768 28.6325C31.2909 28.984 30.5984 29.1598 29.7994 29.1598ZM29.8101 27.6151C30.2433 27.6151 30.6055 27.4961 30.8967 27.2582C31.1879 27.0167 31.4045 26.6935 31.5466 26.2887C31.6922 25.8839 31.765 25.4329 31.765 24.9357C31.765 24.435 31.6922 23.9822 31.5466 23.5774C31.4045 23.169 31.1879 22.8441 30.8967 22.6026C30.6055 22.3612 30.2433 22.2404 29.8101 22.2404C29.3662 22.2404 28.9968 22.3612 28.7021 22.6026C28.4109 22.8441 28.1925 23.169 28.0469 23.5774C27.9049 23.9822 27.8339 24.435 27.8339 24.9357C27.8339 25.4329 27.9049 25.8839 28.0469 26.2887C28.1925 26.6935 28.4109 27.0167 28.7021 27.2582C28.9968 27.4961 29.3662 27.6151 29.8101 27.6151ZM37.2848 24.206V29H35.3565V20.8182H37.1995V22.2085H37.2954C37.4836 21.7504 37.7837 21.3864 38.1956 21.1165C38.6111 20.8466 39.1242 20.7116 39.735 20.7116C40.2997 20.7116 40.7915 20.8324 41.2105 21.0739C41.6331 21.3153 41.9598 21.6651 42.1907 22.1232C42.425 22.5813 42.5404 23.1371 42.5369 23.7905V29H40.6086V24.0888C40.6086 23.5419 40.4666 23.114 40.1825 22.805C39.9019 22.4961 39.5131 22.3416 39.0159 22.3416C38.6786 22.3416 38.3785 22.4162 38.1157 22.5653C37.8565 22.7109 37.6523 22.9222 37.5032 23.1992C37.3576 23.4762 37.2848 23.8118 37.2848 24.206ZM46.4254 24.206V29H44.4971V20.8182H46.3402V22.2085H46.436C46.6242 21.7504 46.9243 21.3864 47.3362 21.1165C47.7517 20.8466 48.2649 20.7116 48.8757 20.7116C49.4403 20.7116 49.9321 20.8324 50.3512 21.0739C50.7737 21.3153 51.1005 21.6651 51.3313 22.1232C51.5657 22.5813 51.6811 23.1371 51.6775 23.7905V29H49.7492V24.0888C49.7492 23.5419 49.6072 23.114 49.3231 22.805C49.0426 22.4961 48.6537 22.3416 48.1566 22.3416C47.8192 22.3416 47.5191 22.4162 47.2563 22.5653C46.9971 22.7109 46.7929 22.9222 46.6438 23.1992C46.4982 23.4762 46.4254 23.8118 46.4254 24.206ZM57.2599 29.1598C56.4396 29.1598 55.7311 28.9893 55.1345 28.6484C54.5415 28.304 54.0852 27.8175 53.7656 27.1889C53.446 26.5568 53.2862 25.8129 53.2862 24.957C53.2862 24.1154 53.446 23.3768 53.7656 22.7411C54.0887 22.1019 54.5397 21.6048 55.1186 21.2496C55.6974 20.891 56.3774 20.7116 57.1587 20.7116C57.663 20.7116 58.1388 20.7933 58.5862 20.9567C59.0372 21.1165 59.435 21.3651 59.7794 21.7024C60.1274 22.0398 60.4009 22.4695 60.5997 22.9915C60.7986 23.5099 60.898 24.1278 60.898 24.8452V25.4364H54.1917V24.1367H59.0497C59.0461 23.7674 58.9662 23.4389 58.81 23.1513C58.6537 22.8601 58.4353 22.631 58.1548 22.4641C57.8778 22.2972 57.5546 22.2138 57.1853 22.2138C56.7911 22.2138 56.4449 22.3097 56.1466 22.5014C55.8483 22.6896 55.6157 22.9382 55.4488 23.2472C55.2855 23.5526 55.202 23.8881 55.1985 24.2539V25.3885C55.1985 25.8643 55.2855 26.2727 55.4595 26.6136C55.6335 26.951 55.8767 27.2102 56.1892 27.3913C56.5017 27.5689 56.8675 27.6577 57.2865 27.6577C57.5671 27.6577 57.821 27.6186 58.0483 27.5405C58.2755 27.4588 58.4726 27.3398 58.6395 27.1836C58.8064 27.0273 58.9325 26.8338 59.0177 26.603L60.8181 26.8054C60.7045 27.2812 60.4879 27.6967 60.1683 28.0518C59.8522 28.4034 59.4474 28.6768 58.9538 28.8722C58.4602 29.0639 57.8956 29.1598 57.2599 29.1598ZM66.0982 29.1598C65.2815 29.1598 64.5801 28.9805 63.9942 28.6218C63.4118 28.2631 62.9626 27.7678 62.6465 27.1357C62.334 26.5 62.1778 25.7685 62.1778 24.9411C62.1778 24.1101 62.3376 23.3768 62.6572 22.7411C62.9768 22.1019 63.4278 21.6048 64.0102 21.2496C64.5961 20.891 65.2886 20.7116 66.0876 20.7116C66.7516 20.7116 67.3394 20.8342 67.8507 21.0792C68.3656 21.3207 68.7758 21.6634 69.0812 22.1072C69.3866 22.5476 69.5606 23.0625 69.6032 23.652H67.7602C67.6856 23.2578 67.508 22.9293 67.2275 22.6665C66.9505 22.4002 66.5794 22.267 66.1142 22.267C65.72 22.267 65.3738 22.3736 65.0755 22.5866C64.7772 22.7962 64.5446 23.098 64.3777 23.4922C64.2144 23.8864 64.1327 24.3587 64.1327 24.9091C64.1327 25.4666 64.2144 25.946 64.3777 26.3473C64.5411 26.745 64.7701 27.0522 65.0649 27.2688C65.3631 27.4819 65.7129 27.5884 66.1142 27.5884C66.3983 27.5884 66.6522 27.5352 66.8759 27.4286C67.1032 27.3185 67.2932 27.1605 67.4459 26.9545C67.5986 26.7486 67.7033 26.4982 67.7602 26.2035H69.6032C69.557 26.7823 69.3866 27.2955 69.0918 27.7429C68.7971 28.1868 68.3958 28.5348 67.888 28.7869C67.3802 29.0355 66.7836 29.1598 66.0982 29.1598ZM75.2722 20.8182V22.3097H70.5687V20.8182H75.2722ZM71.7299 18.858H73.6582V26.5391C73.6582 26.7983 73.6972 26.9972 73.7753 27.1357C73.857 27.2706 73.9636 27.3629 74.0949 27.4126C74.2263 27.4624 74.3719 27.4872 74.5317 27.4872C74.6525 27.4872 74.7626 27.4783 74.862 27.4606C74.965 27.4428 75.0431 27.4268 75.0964 27.4126L75.4213 28.9201C75.3183 28.9556 75.1709 28.9947 74.9792 29.0373C74.791 29.0799 74.5601 29.1048 74.2867 29.1119C73.8038 29.1261 73.3687 29.0533 72.9817 28.8935C72.5946 28.7301 72.2874 28.478 72.0601 28.1371C71.8364 27.7962 71.7263 27.37 71.7299 26.8587V18.858ZM82.9866 29L79.9077 18.0909H82.0331L83.9986 26.1076H84.0998L86.1986 18.0909H88.1321L90.2362 26.1129H90.3321L92.2976 18.0909H94.423L91.3441 29H89.3946L87.2106 21.3455H87.1254L84.9361 29H82.9866ZM97.2275 29.1651C96.709 29.1651 96.2421 29.0728 95.8266 28.8881C95.4146 28.6999 95.0879 28.4229 94.8465 28.0572C94.6085 27.6914 94.4896 27.2404 94.4896 26.7042C94.4896 26.2425 94.5748 25.8608 94.7453 25.5589C94.9157 25.2571 95.1483 25.0156 95.443 24.8345C95.7378 24.6534 96.0698 24.5167 96.4391 24.4244C96.812 24.3285 97.1973 24.2592 97.595 24.2166C98.0744 24.1669 98.4633 24.1225 98.7616 24.0835C99.0599 24.0408 99.2765 23.9769 99.4114 23.8917C99.5499 23.8029 99.6192 23.6662 99.6192 23.4815V23.4496C99.6192 23.0483 99.5002 22.7376 99.2623 22.5174C99.0244 22.2972 98.6817 22.1871 98.2342 22.1871C97.7619 22.1871 97.3873 22.2901 97.1103 22.4961C96.8369 22.7021 96.6522 22.9453 96.5563 23.2259L94.7559 22.9702C94.8979 22.473 95.1323 22.0575 95.459 21.7237C95.7857 21.3864 96.1852 21.1342 96.6575 20.9673C97.1298 20.7969 97.6519 20.7116 98.2236 20.7116C98.6178 20.7116 99.0102 20.7578 99.4008 20.8501C99.7914 20.9425 100.148 21.0952 100.471 21.3082C100.795 21.5178 101.054 21.8036 101.249 22.1658C101.448 22.5281 101.547 22.9808 101.547 23.5241V29H99.6938V27.8761H99.6298C99.5127 28.1033 99.3475 28.3164 99.1345 28.5153C98.9249 28.7106 98.6604 28.8686 98.3408 28.9893C98.0247 29.1065 97.6536 29.1651 97.2275 29.1651ZM97.7282 27.7482C98.1153 27.7482 98.4509 27.6719 98.735 27.5192C99.019 27.3629 99.2374 27.157 99.3901 26.9013C99.5464 26.6456 99.6245 26.3668 99.6245 26.065V25.1009C99.5641 25.1506 99.4612 25.1967 99.3156 25.2393C99.1735 25.282 99.0137 25.3192 98.8362 25.3512C98.6586 25.3832 98.4828 25.4116 98.3088 25.4364C98.1348 25.4613 97.9839 25.4826 97.856 25.5004C97.5684 25.5394 97.3109 25.6033 97.0837 25.6921C96.8564 25.7809 96.6771 25.9052 96.5457 26.065C96.4143 26.2212 96.3486 26.4237 96.3486 26.6722C96.3486 27.0273 96.4782 27.2955 96.7374 27.4766C96.9967 27.6577 97.3269 27.7482 97.7282 27.7482ZM105.415 18.0909V29H103.486V18.0909H105.415ZM109.326 18.0909V29H107.398V18.0909H109.326ZM114.931 29.1598C114.11 29.1598 113.402 28.9893 112.805 28.6484C112.212 28.304 111.756 27.8175 111.436 27.1889C111.117 26.5568 110.957 25.8129 110.957 24.957C110.957 24.1154 111.117 23.3768 111.436 22.7411C111.76 22.1019 112.211 21.6048 112.789 21.2496C113.368 20.891 114.048 20.7116 114.83 20.7116C115.334 20.7116 115.81 20.7933 116.257 20.9567C116.708 21.1165 117.106 21.3651 117.45 21.7024C117.798 22.0398 118.072 22.4695 118.271 22.9915C118.47 23.5099 118.569 24.1278 118.569 24.8452V25.4364H111.863V24.1367H116.721C116.717 23.7674 116.637 23.4389 116.481 23.1513C116.325 22.8601 116.106 22.631 115.826 22.4641C115.549 22.2972 115.226 22.2138 114.856 22.2138C114.462 22.2138 114.116 22.3097 113.818 22.5014C113.519 22.6896 113.287 22.9382 113.12 23.2472C112.956 23.5526 112.873 23.8881 112.869 24.2539V25.3885C112.869 25.8643 112.956 26.2727 113.13 26.6136C113.304 26.951 113.548 27.2102 113.86 27.3913C114.173 27.5689 114.538 27.6577 114.957 27.6577C115.238 27.6577 115.492 27.6186 115.719 27.5405C115.946 27.4588 116.144 27.3398 116.31 27.1836C116.477 27.0273 116.603 26.8338 116.689 26.603L118.489 26.8054C118.375 27.2812 118.159 27.6967 117.839 28.0518C117.523 28.4034 117.118 28.6768 116.625 28.8722C116.131 29.0639 115.566 29.1598 114.931 29.1598ZM124.286 20.8182V22.3097H119.582V20.8182H124.286ZM120.744 18.858H122.672V26.5391C122.672 26.7983 122.711 26.9972 122.789 27.1357C122.871 27.2706 122.977 27.3629 123.109 27.4126C123.24 27.4624 123.386 27.4872 123.545 27.4872C123.666 27.4872 123.776 27.4783 123.876 27.4606C123.979 27.4428 124.057 27.4268 124.11 27.4126L124.435 28.9201C124.332 28.9556 124.185 28.9947 123.993 29.0373C123.805 29.0799 123.574 29.1048 123.3 29.1119C122.817 29.1261 122.382 29.0533 121.995 28.8935C121.608 28.7301 121.301 28.478 121.074 28.1371C120.85 27.7962 120.74 27.37 120.744 26.8587V18.858Z" fill="black"/>
</svg>
