<svg width="80" height="80" viewBox="0 0 80 80" fill="none" xmlns="http://www.w3.org/2000/svg">
<path d="M13.6447 80H66.3552C70.9034 80 74.3146 78.8774 76.5888 76.6322C78.863 74.3871 80 71.0194 80 66.529V13.4709C80 8.98062 78.863 5.61289 76.5888 3.36774C74.3146 1.12258 70.9034 0 66.3552 0H13.6447C9.09649 0 5.68531 1.12258 3.41119 3.36774C1.13706 5.61289 0 8.98062 0 13.4709V66.529C0 71.0194 1.13706 74.3871 3.41119 76.6322C5.68531 78.8774 9.09649 80 13.6447 80ZM35.1548 61.1407C34.4016 61.1407 33.7208 60.9814 33.1124 60.6627C32.504 60.344 31.9102 59.8081 31.3308 59.0549L20.4237 45.6708C20.105 45.2363 19.8515 44.78 19.6632 44.302C19.4749 43.824 19.3808 43.3388 19.3808 42.8463C19.3808 41.8613 19.7139 41.0139 20.3802 40.3042C21.0466 39.5944 21.8722 39.2396 22.8572 39.2396C23.4944 39.2396 24.0666 39.3699 24.5735 39.6306C25.0805 39.8914 25.6092 40.3838 26.1597 41.108L34.981 52.4932L53.5361 22.6834C54.3473 21.3507 55.3902 20.6844 56.6648 20.6844C57.5919 20.6844 58.432 20.9814 59.1852 21.5753C59.9385 22.1691 60.3151 22.973 60.3151 23.9869C60.3151 24.4794 60.1992 24.972 59.9673 25.4645C59.7357 25.9569 59.4894 26.4204 59.2287 26.855L38.805 59.0549C38.3415 59.7502 37.8055 60.2716 37.1972 60.6192C36.5888 60.9669 35.908 61.1407 35.1548 61.1407Z" fill="#00AD45"/>
<path d="M35.1548 61.1407C34.4016 61.1407 33.7208 60.9814 33.1124 60.6627C32.504 60.344 31.9102 59.8081 31.3308 59.0549L20.4237 45.6708C20.105 45.2363 19.8515 44.78 19.6632 44.302C19.4749 43.824 19.3808 43.3388 19.3808 42.8463C19.3808 41.8613 19.7139 41.0139 20.3802 40.3042C21.0466 39.5944 21.8722 39.2396 22.8572 39.2396C23.4944 39.2396 24.0666 39.3699 24.5735 39.6306C25.0805 39.8914 25.6092 40.3838 26.1597 41.108L34.981 52.4932L53.5361 22.6834C54.3473 21.3507 55.3902 20.6844 56.6648 20.6844C57.5919 20.6844 58.432 20.9814 59.1852 21.5753C59.9385 22.1691 60.3151 22.973 60.3151 23.9869C60.3151 24.4794 60.1992 24.972 59.9673 25.4645C59.7357 25.9569 59.4894 26.4204 59.2287 26.855L38.805 59.0549C38.3415 59.7502 37.8055 60.2716 37.1972 60.6192C36.5888 60.9669 35.908 61.1407 35.1548 61.1407Z" fill="white"/>
</svg>
