<svg width="280" height="80" viewBox="0 0 280 80" fill="none" xmlns="http://www.w3.org/2000/svg">
<rect width="280" height="80" rx="40" fill="#9900CC"/>
<path d="M78.2821 36.277H74.9583C74.8304 35.5668 74.5925 34.9418 74.2445 34.402C73.8965 33.8622 73.4703 33.4041 72.9661 33.0277C72.4618 32.6513 71.8972 32.3672 71.2722 32.1754C70.6543 31.9837 69.9973 31.8878 69.3013 31.8878C68.0442 31.8878 66.9185 32.2038 65.9242 32.8359C64.937 33.468 64.1557 34.3949 63.5804 35.6165C63.0123 36.8381 62.7282 38.3295 62.7282 40.0909C62.7282 41.8665 63.0123 43.3651 63.5804 44.5866C64.1557 45.8082 64.9405 46.7315 65.9348 47.3565C66.9292 47.9815 68.0478 48.294 69.2907 48.294C69.9796 48.294 70.633 48.2017 71.2509 48.017C71.8759 47.8253 72.4405 47.5447 72.9448 47.1754C73.449 46.8061 73.8752 46.3551 74.2232 45.8224C74.5783 45.2827 74.8233 44.6648 74.9583 43.9688L78.2821 43.9794C78.1046 45.0518 77.7601 46.0391 77.2488 46.9411C76.7445 47.8359 76.0946 48.6101 75.2992 49.2635C74.5108 49.9098 73.6088 50.4105 72.5932 50.7656C71.5776 51.1207 70.4696 51.2983 69.2694 51.2983C67.3801 51.2983 65.6969 50.8509 64.2196 49.956C62.7424 49.054 61.5776 47.7649 60.7253 46.0888C59.8801 44.4126 59.4576 42.4134 59.4576 40.0909C59.4576 37.7614 59.8837 35.7621 60.736 34.093C61.5882 32.4169 62.753 31.1314 64.2303 30.2365C65.7076 29.3345 67.3873 28.8835 69.2694 28.8835C70.427 28.8835 71.5066 29.0504 72.508 29.3842C73.5165 29.7109 74.4221 30.1939 75.2246 30.8331C76.0272 31.4652 76.6912 32.2393 77.2168 33.1555C77.7424 34.0646 78.0975 35.1051 78.2821 36.277ZM81.9656 51V34.6364H85.0444V37.2358H85.2148C85.5131 36.3551 86.0387 35.6626 86.7915 35.1584C87.5515 34.647 88.4109 34.3913 89.3697 34.3913C89.5685 34.3913 89.8029 34.3984 90.0728 34.4126C90.3498 34.4268 90.5664 34.4446 90.7227 34.4659V37.5128C90.5948 37.4773 90.3675 37.4382 90.0408 37.3956C89.7141 37.3459 89.3874 37.321 89.0607 37.321C88.3079 37.321 87.6367 37.4808 87.0472 37.8004C86.4648 38.1129 86.0032 38.5497 85.6623 39.1108C85.3214 39.6648 85.1509 40.2969 85.1509 41.0071V51H81.9656ZM99.9458 51.3303C98.3336 51.3303 96.9451 50.9858 95.7804 50.2969C94.6227 49.6009 93.7278 48.6243 93.0957 47.3672C92.4707 46.103 92.1582 44.6222 92.1582 42.9247C92.1582 41.2486 92.4707 39.7713 93.0957 38.4929C93.7278 37.2145 94.6085 36.2166 95.7377 35.4993C96.8741 34.782 98.2022 34.4233 99.7221 34.4233C100.645 34.4233 101.54 34.576 102.407 34.8814C103.273 35.1868 104.051 35.6662 104.74 36.3196C105.429 36.973 105.972 37.8217 106.37 38.8658C106.768 39.9027 106.966 41.1634 106.966 42.6477V43.777H93.9586V41.3906H103.845C103.845 40.5526 103.675 39.8104 103.334 39.1641C102.993 38.5107 102.513 37.9957 101.895 37.6193C101.285 37.2429 100.567 37.0547 99.7434 37.0547C98.8485 37.0547 98.0673 37.2749 97.3997 37.7152C96.7392 38.1484 96.2278 38.7166 95.8656 39.4197C95.5105 40.1158 95.3329 40.8722 95.3329 41.6889V43.5533C95.3329 44.647 95.5247 45.5774 95.9082 46.3445C96.2988 47.1115 96.8422 47.6974 97.5382 48.1023C98.2342 48.5 99.0474 48.6989 99.9778 48.6989C100.581 48.6989 101.132 48.6136 101.629 48.4432C102.126 48.2656 102.556 48.0028 102.918 47.6548C103.28 47.3068 103.557 46.8771 103.749 46.3658L106.764 46.9091C106.523 47.7969 106.089 48.5746 105.464 49.2422C104.846 49.9027 104.069 50.4176 103.131 50.7869C102.201 51.1491 101.139 51.3303 99.9458 51.3303ZM115.263 51.3622C114.226 51.3622 113.288 51.1705 112.45 50.7869C111.612 50.3963 110.948 49.8317 110.458 49.093C109.975 48.3544 109.734 47.4489 109.734 46.3764C109.734 45.4531 109.911 44.6932 110.266 44.0966C110.621 43.5 111.101 43.0277 111.705 42.6797C112.308 42.3317 112.983 42.0689 113.729 41.8913C114.474 41.7138 115.234 41.5788 116.009 41.4865C116.989 41.3729 117.784 41.2805 118.395 41.2095C119.006 41.1314 119.45 41.0071 119.727 40.8366C120.004 40.6662 120.142 40.3892 120.142 40.0057V39.9311C120.142 39.0007 119.879 38.2798 119.354 37.7685C118.835 37.2571 118.061 37.0014 117.031 37.0014C115.959 37.0014 115.114 37.2393 114.496 37.7152C113.885 38.1839 113.462 38.706 113.228 39.2812L110.234 38.5994C110.589 37.6051 111.108 36.8026 111.79 36.1918C112.479 35.5739 113.271 35.1264 114.165 34.8494C115.06 34.5653 116.001 34.4233 116.989 34.4233C117.642 34.4233 118.335 34.5014 119.066 34.6577C119.805 34.8068 120.494 35.0838 121.133 35.4886C121.779 35.8935 122.308 36.4723 122.72 37.2251C123.132 37.9709 123.338 38.9403 123.338 40.1335V51H120.227V48.7628H120.099C119.893 49.1747 119.585 49.5795 119.173 49.9773C118.761 50.375 118.232 50.7053 117.585 50.968C116.939 51.2308 116.165 51.3622 115.263 51.3622ZM115.955 48.8054C116.836 48.8054 117.589 48.6314 118.214 48.2834C118.846 47.9354 119.325 47.4808 119.652 46.9197C119.986 46.3516 120.153 45.7443 120.153 45.098V42.9886C120.039 43.1023 119.819 43.2088 119.492 43.3082C119.173 43.4006 118.807 43.4822 118.395 43.5533C117.983 43.6172 117.582 43.6776 117.191 43.7344C116.8 43.7841 116.474 43.8267 116.211 43.8622C115.593 43.9403 115.028 44.0717 114.517 44.2564C114.013 44.4411 113.608 44.7074 113.303 45.0554C113.004 45.3963 112.855 45.8509 112.855 46.419C112.855 47.2074 113.146 47.804 113.729 48.2088C114.311 48.6065 115.053 48.8054 115.955 48.8054ZM135.219 34.6364V37.1932H126.281V34.6364H135.219ZM128.678 30.7159H131.863V46.1953C131.863 46.8132 131.956 47.2784 132.14 47.5909C132.325 47.8963 132.563 48.1058 132.854 48.2195C133.153 48.326 133.476 48.3793 133.824 48.3793C134.079 48.3793 134.303 48.3615 134.495 48.326C134.687 48.2905 134.836 48.2621 134.942 48.2408L135.518 50.8722C135.333 50.9432 135.07 51.0142 134.729 51.0852C134.388 51.1634 133.962 51.206 133.451 51.2131C132.613 51.2273 131.831 51.0781 131.107 50.7656C130.383 50.4531 129.797 49.9702 129.349 49.3168C128.902 48.6634 128.678 47.843 128.678 46.8558V30.7159ZM145.62 51.3303C144.007 51.3303 142.619 50.9858 141.454 50.2969C140.297 49.6009 139.402 48.6243 138.77 47.3672C138.145 46.103 137.832 44.6222 137.832 42.9247C137.832 41.2486 138.145 39.7713 138.77 38.4929C139.402 37.2145 140.282 36.2166 141.412 35.4993C142.548 34.782 143.876 34.4233 145.396 34.4233C146.319 34.4233 147.214 34.576 148.081 34.8814C148.947 35.1868 149.725 35.6662 150.414 36.3196C151.103 36.973 151.646 37.8217 152.044 38.8658C152.441 39.9027 152.64 41.1634 152.64 42.6477V43.777H139.632V41.3906H149.519C149.519 40.5526 149.348 39.8104 149.007 39.1641C148.667 38.5107 148.187 37.9957 147.569 37.6193C146.958 37.2429 146.241 37.0547 145.417 37.0547C144.522 37.0547 143.741 37.2749 143.074 37.7152C142.413 38.1484 141.902 38.7166 141.539 39.4197C141.184 40.1158 141.007 40.8722 141.007 41.6889V43.5533C141.007 44.647 141.199 45.5774 141.582 46.3445C141.973 47.1115 142.516 47.6974 143.212 48.1023C143.908 48.5 144.721 48.6989 145.652 48.6989C146.255 48.6989 146.806 48.6136 147.303 48.4432C147.8 48.2656 148.23 48.0028 148.592 47.6548C148.954 47.3068 149.231 46.8771 149.423 46.3658L152.438 46.9091C152.196 47.7969 151.763 48.5746 151.138 49.2422C150.52 49.9027 149.743 50.4176 148.805 50.7869C147.875 51.1491 146.813 51.3303 145.62 51.3303ZM167.299 41.2841V51H164.114V34.6364H167.172V37.2997H167.374C167.75 36.4332 168.34 35.7372 169.142 35.2116C169.952 34.6861 170.971 34.4233 172.2 34.4233C173.315 34.4233 174.292 34.6577 175.13 35.1264C175.968 35.5881 176.618 36.277 177.079 37.1932C177.541 38.1094 177.772 39.2422 177.772 40.5916V51H174.586V40.9751C174.586 39.7891 174.277 38.8622 173.659 38.1946C173.042 37.5199 172.193 37.1825 171.113 37.1825C170.375 37.1825 169.718 37.3423 169.142 37.6619C168.574 37.9815 168.123 38.4503 167.789 39.0682C167.463 39.679 167.299 40.4176 167.299 41.2841ZM189.096 51.3303C187.484 51.3303 186.096 50.9858 184.931 50.2969C183.773 49.6009 182.878 48.6243 182.246 47.3672C181.621 46.103 181.309 44.6222 181.309 42.9247C181.309 41.2486 181.621 39.7713 182.246 38.4929C182.878 37.2145 183.759 36.2166 184.888 35.4993C186.025 34.782 187.353 34.4233 188.873 34.4233C189.796 34.4233 190.691 34.576 191.557 34.8814C192.424 35.1868 193.201 35.6662 193.89 36.3196C194.579 36.973 195.123 37.8217 195.52 38.8658C195.918 39.9027 196.117 41.1634 196.117 42.6477V43.777H183.109V41.3906H192.995C192.995 40.5526 192.825 39.8104 192.484 39.1641C192.143 38.5107 191.664 37.9957 191.046 37.6193C190.435 37.2429 189.718 37.0547 188.894 37.0547C187.999 37.0547 187.218 37.2749 186.55 37.7152C185.89 38.1484 185.378 38.7166 185.016 39.4197C184.661 40.1158 184.483 40.8722 184.483 41.6889V43.5533C184.483 44.647 184.675 45.5774 185.059 46.3445C185.449 47.1115 185.993 47.6974 186.689 48.1023C187.385 48.5 188.198 48.6989 189.128 48.6989C189.732 48.6989 190.282 48.6136 190.779 48.4432C191.277 48.2656 191.706 48.0028 192.069 47.6548C192.431 47.3068 192.708 46.8771 192.9 46.3658L195.914 46.9091C195.673 47.7969 195.24 48.5746 194.615 49.2422C193.997 49.9027 193.219 50.4176 192.282 50.7869C191.351 51.1491 190.289 51.3303 189.096 51.3303ZM203.169 51L198.354 34.6364H201.646L204.853 46.6534H205.012L208.23 34.6364H211.522L214.718 46.6001H214.877L218.063 34.6364H221.355L216.55 51H213.301L209.977 39.1854H209.732L206.408 51H203.169Z" fill="white"/>
</svg>
