<svg width="320" height="320" viewBox="0 0 320 320" fill="none" xmlns="http://www.w3.org/2000/svg">
<rect x="0.5" y="0.5" width="319" height="319" fill="white"/>
<path d="M160 203.074C183.59 203.074 203.098 183.566 203.098 159.977C203.098 136.344 183.59 116.879 159.957 116.879C136.367 116.879 116.902 136.344 116.902 159.977C116.902 183.566 136.41 203.074 160 203.074ZM151.75 177.164C149.902 178.238 147.797 177.336 147.797 175.445V144.551C147.797 142.66 150.031 141.844 151.75 142.875L176.801 157.871C178.477 158.902 178.52 161.223 176.801 162.211L151.75 177.164Z" fill="#DBDBDB"/>
<rect x="0.5" y="0.5" width="319" height="319" stroke="#9E9E9E" stroke-dasharray="8 8"/>
</svg>
