<svg width="48" height="48" viewBox="0 0 48 48" fill="none" xmlns="http://www.w3.org/2000/svg">
<path d="M24 48C37.1294 48 48 37.1059 48 24C48 10.8706 37.1059 0 23.9765 0C10.8706 0 0 10.8706 0 24C0 37.1059 10.8941 48 24 48ZM24 44C12.8941 44 4.02353 35.1059 4.02353 24C4.02353 12.8941 12.8706 4 23.9765 4C35.0824 4 43.9765 12.8941 44 24C44.0235 35.1059 35.1059 44 24 44ZM13.0118 27.4118C14.8941 27.4118 16.4235 25.8824 16.4235 23.9765C16.4235 22.0941 14.8706 20.5647 13.0118 20.5647C11.1059 20.5647 9.57647 22.0941 9.57647 23.9765C9.57647 25.8824 11.1059 27.4118 13.0118 27.4118ZM23.9765 27.4118C25.8588 27.4118 27.4118 25.8824 27.4118 23.9765C27.4118 22.0941 25.8588 20.5647 23.9765 20.5647C22.0941 20.5647 20.5412 22.0941 20.5412 23.9765C20.5412 25.8824 22.0941 27.4118 23.9765 27.4118ZM34.9647 27.4118C36.8471 27.4118 38.3765 25.8824 38.3765 23.9765C38.3765 22.0941 36.8471 20.5647 34.9647 20.5647C33.0588 20.5647 31.5294 22.0941 31.5294 23.9765C31.5294 25.8824 33.0588 27.4118 34.9647 27.4118Z" fill="black" fill-opacity="0.2"/>
</svg>
