<svg width="62" height="62" viewBox="0 0 62 62" fill="none" xmlns="http://www.w3.org/2000/svg">
<g filter="url(#filter0_d_25_399)">
<circle cx="31" cy="30" r="30" fill="#DB0000"/>
</g>
<path d="M30.7274 11.5C27.3227 11.5 25.0124 13.984 24.9255 17.5972V18.292L36.4772 29.8263C36.5119 29.7047 36.5293 29.5484 36.5293 29.4094V17.7883C36.5293 14.0709 34.2016 11.5 30.7274 11.5ZM18.3072 29.6873C18.3072 36.4967 22.7889 41.2737 29.4246 41.8296V45.877H22.9626C22.233 45.877 21.6598 46.4676 21.6598 47.1972C21.6598 47.9268 22.233 48.5 22.9626 48.5H38.4922C39.2218 48.5 39.795 47.9268 39.795 47.1972C39.795 46.4676 39.2218 45.877 38.4922 45.877H32.0476V41.8296C33.9931 41.6732 35.765 41.1521 37.2589 40.3009L35.4002 38.4249C34.08 39.0676 32.4992 39.4324 30.7274 39.4324C24.7866 39.4324 20.9302 35.5066 20.9302 29.5831V26.161C20.9302 25.4315 20.3396 24.8582 19.61 24.8582C18.8805 24.8582 18.3072 25.4315 18.3072 26.161V29.6873ZM39.934 33.2657L41.9664 35.2981C42.7307 33.6653 43.165 31.7718 43.165 29.6873V26.161C43.165 25.4315 42.5744 24.8582 41.8448 24.8582C41.1152 24.8582 40.542 25.4315 40.542 26.161V29.5831C40.542 30.9207 40.3335 32.154 39.934 33.2657ZM30.7274 35.6977C31.3354 35.6977 31.9086 35.6108 32.4124 35.4197L24.9255 27.9502V29.4094C24.9255 33.1094 27.2706 35.6977 30.7274 35.6977Z" fill="white"/>
<path d="M43.4951 43.5489C44.0163 44.07 44.8674 44.07 45.3886 43.5489C45.8923 43.0104 45.9097 42.1766 45.3886 41.6555L18.5158 14.8001C17.9947 14.2963 17.1261 14.2789 16.605 14.8001C16.1012 15.3212 16.1012 16.1897 16.605 16.6935L43.4951 43.5489Z" fill="white"/>
<defs>
<filter id="filter0_d_25_399" x="0" y="0" width="62" height="62" filterUnits="userSpaceOnUse" color-interpolation-filters="sRGB">
<feFlood flood-opacity="0" result="BackgroundImageFix"/>
<feColorMatrix in="SourceAlpha" type="matrix" values="0 0 0 0 0 0 0 0 0 0 0 0 0 0 0 0 0 0 127 0" result="hardAlpha"/>
<feOffset dy="1"/>
<feGaussianBlur stdDeviation="0.5"/>
<feColorMatrix type="matrix" values="0 0 0 0 0 0 0 0 0 0 0 0 0 0 0 0 0 0 0.125 0"/>
<feBlend mode="normal" in2="BackgroundImageFix" result="effect1_dropShadow_25_399"/>
<feBlend mode="normal" in="SourceGraphic" in2="effect1_dropShadow_25_399" result="shape"/>
</filter>
</defs>
</svg>
